<?xml version="1.0" standalone="no"?>
<!DOCTYPE svg PUBLIC "-//W3C//DTD SVG 20010904//EN"
 "http://www.w3.org/TR/2001/REC-SVG-20010904/DTD/svg10.dtd">
<svg version="1.0" xmlns="http://www.w3.org/2000/svg"
 width="260.000000pt" height="260.000000pt" viewBox="0 0 260.000000 260.000000"
 preserveAspectRatio="xMidYMid meet">
<metadata>
Created by potrace 1.11, written by Peter Selinger 2001-2013
</metadata>
<g transform="translate(0.000000,260.000000) scale(0.100000,-0.100000)"
fill="#000000" stroke="none">
<path d="M1126 2589 c-549 -76 -986 -487 -1103 -1039 -25 -119 -25 -382 0
-500 58 -273 179 -493 376 -683 186 -179 393 -289 651 -344 118 -25 382 -25
500 0 258 55 465 165 651 344 197 190 318 410 376 683 25 118 25 382 0 500
-58 273 -179 493 -376 683 -185 178 -395 290 -646 342 -95 20 -332 28 -429 14z
m809 -578 c73 -33 105 -86 105 -169 -1 -98 -58 -165 -152 -178 -60 -8 -119 18
-180 82 -60 61 -63 58 -122 -98 -59 -155 -79 -192 -139 -255 -29 -31 -46 -57
-41 -62 5 -4 32 -16 59 -26 76 -27 137 -69 208 -145 53 -55 76 -92 126 -197
136 -286 145 -297 252 -309 l59 -7 0 -38 0 -39 -277 2 -278 3 -56 160 c-137
396 -190 462 -391 490 l-48 6 0 -236 c0 -195 3 -243 16 -270 18 -38 63 -60
143 -71 l51 -7 0 -38 0 -39 -390 0 -390 0 0 39 0 38 63 6 c79 7 114 23 133 58
19 38 21 1100 1 1139 -15 32 -83 66 -147 75 l-50 7 0 44 0 44 390 0 390 0 0
-44 0 -43 -55 -6 c-69 -7 -126 -34 -142 -67 -9 -18 -13 -98 -13 -282 l0 -258
40 0 c21 0 63 5 92 11 45 10 62 20 115 74 67 68 110 144 163 290 55 149 67
173 122 232 72 76 131 103 228 103 52 0 87 -6 115 -19z"/>
</g>
</svg>
