<svg id="Layer_1" xmlns="http://www.w3.org/2000/svg" viewBox="0 0 18 9.7"><style>.st0{fill:#242e39}</style><title>Arrow-left - simple-line-icons Copy</title><g id="Symbols"><g id="footer" transform="translate(-1600 -107)"><g transform="translate(312 107)" id="reviews"><g id="slider_review" transform="translate(1268)"><path id="Arrow-left---simple-line-icons-Copy" class="st0" d="M38 .6V.4s-.1-.1-.1-.2c-.2-.1-.4-.2-.5-.2s-.3.1-.4.2l-8 8-8-7.9c-.1-.1-.3-.2-.4-.2s-.3.1-.4.2-.2.2-.2.4.1.3.2.4l8.3 8.3c.1.1.3.2.4.2s.3-.1.4-.2L37.8 1c.1-.1.1-.1.1-.2s.1-.1.1-.2z"/></g></g></g></g></svg>