<svg width="18" height="25" viewBox="0 0 18 25" xmlns="http://www.w3.org/2000/svg"><title>location-pin - simple-line-icons copy</title><path d="M9.094.5c1.406 0 2.664.242 3.773.727 1.11.484 2.043 1.144 2.801 1.98a8.644 8.644 0 0 1 1.734 2.918A10.31 10.31 0 0 1 18 9.641c0 1.25-.246 2.527-.738 3.832a24.137 24.137 0 0 1-1.864 3.843 35.063 35.063 0 0 1-2.437 3.575 67.669 67.669 0 0 1-2.461 3c0 .015-.117.12-.352.316a1.243 1.243 0 0 1-.82.293h-.07a1.23 1.23 0 0 1-.832-.293c-.227-.195-.34-.3-.34-.316a517.627 517.627 0 0 1-2.637-3.07 34.984 34.984 0 0 1-2.625-3.505A22.964 22.964 0 0 1 .81 13.531C.269 12.234 0 10.938 0 9.641a8.68 8.68 0 0 1 .727-3.516 9.514 9.514 0 0 1 1.968-2.918 9.306 9.306 0 0 1 2.895-1.98A8.61 8.61 0 0 1 9.094.5zm.281 22.383a53.892 53.892 0 0 0 3.117-3.89c.89-1.235 1.633-2.403 2.227-3.505.594-1.101 1.039-2.14 1.336-3.117.297-.976.445-1.887.445-2.73 0-.954-.145-1.887-.434-2.801a7.02 7.02 0 0 0-1.347-2.45c-.61-.718-1.38-1.296-2.309-1.734C11.48 2.22 10.375 2 9.094 2a7.185 7.185 0 0 0-2.93.61A7.76 7.76 0 0 0 3.75 4.261a7.97 7.97 0 0 0-1.64 2.437c-.407.93-.61 1.91-.61 2.942 0 1.109.234 2.234.703 3.375a20.223 20.223 0 0 0 1.781 3.363 32.977 32.977 0 0 0 2.368 3.187 325.98 325.98 0 0 0 2.437 2.872l.399.445.093.094a.385.385 0 0 1 .059-.047c.023-.016.035-.032.035-.047zm-.352-17.86c1.25 0 2.313.442 3.188 1.325.875.882 1.312 1.941 1.312 3.175 0 1.25-.437 2.313-1.312 3.188s-1.938 1.312-3.188 1.312c-1.234 0-2.293-.437-3.175-1.312-.883-.875-1.325-1.938-1.325-3.188 0-1.234.442-2.293 1.325-3.175.882-.883 1.941-1.325 3.175-1.325zm0 7.5c.829 0 1.532-.296 2.11-.89A2.95 2.95 0 0 0 12 9.5a2.89 2.89 0 0 0-.879-2.121A2.89 2.89 0 0 0 9 6.5a2.89 2.89 0 0 0-2.121.879A2.89 2.89 0 0 0 6 9.5c0 .828.297 1.54.89 2.133a2.91 2.91 0 0 0 2.133.89z" fill="#E60000" fill-rule="evenodd"/></svg>