<svg width="110" height="69" viewBox="0 0 110 69" xmlns="http://www.w3.org/2000/svg"><title>retro</title><g transform="translate(1 1)" stroke="#E60000" fill="none" fill-rule="evenodd"><path d="M54.044 59.83c7.762-6.135 12.745-15.648 12.745-26.33 0-10.682-4.983-20.195-12.745-26.33A33.186 33.186 0 0 1 74.694 0c18.443 0 33.394 14.998 33.394 33.5 0 18.502-14.951 33.5-33.395 33.5a33.186 33.186 0 0 1-20.649-7.17z"/><path d="M57.909 56.249a33.439 33.439 0 0 0 8.88-22.749c0-9.07-3.592-17.297-9.428-23.328A28.728 28.728 0 0 1 75.191 4c15.967 0 28.91 12.984 28.91 29S91.158 62 75.19 62a28.72 28.72 0 0 1-17.282-5.751z"/><ellipse cx="33.822" cy="33.5" rx="33.395" ry="33.5"/><ellipse cx="33.324" cy="33" rx="28.909" ry="29"/></g></svg>