<svg width="174" height="129" viewBox="0 0 174 129" xmlns="http://www.w3.org/2000/svg"><title>ring</title><g transform="translate(0 1)" stroke="#E60000" fill="none" fill-rule="evenodd"><path d="M108.427 117.214c-35.676 13.695-73.763 14.622-92.41-2.698-4.53-4.207-6.1-13.953-8.305-19.696C5.35 88.663-.21 75.5.58 68.885c2.982-24.96 31.94-44.643 66.994-58.1C96.45-.298 127.175-3.958 147.143 5.777c10.693 5.214 17.21 17.155 21.145 27.404 3.678 9.583 6.716 20.616 3.009 30.95-7.662 21.36-32.986 41.613-62.87 53.084zM94.571 78.955c12.995-4.988 26.866-12.995 36.645-20.385 4.69-3.544 10.065-8.877 16.124-15.997-22.862-4.104-45.464-1.868-67.807 6.709-22.343 8.576-40.978 20.841-55.906 36.794 8.466 1.78 15.159 2.697 20.079 2.75 15.695.167 35.669-4.037 50.865-9.87z"/><circle cx="101.5" cy="100.5" r="8.5"/><ellipse transform="rotate(-15 161.237 55.674)" cx="161.237" cy="55.674" rx="4.364" ry="7.81"/><ellipse transform="rotate(-19 27.237 107.674)" cx="27.237" cy="107.674" rx="4.364" ry="7.81"/></g></svg>