<svg width="94" height="161" viewBox="0 0 94 161" xmlns="http://www.w3.org/2000/svg"><title>silver</title><g transform="translate(1)" stroke="#E60000" fill="none" fill-rule="evenodd"><path d="M32.383 21.794l1.125 4.569C23.107 22.859 14.591 14.323 7.962.753h4.44c6.563 11.16 12.36 17.961 19.98 21.04zm23.642-1.71C62.32 16.38 68.928 9.868 75.85.547l4.545.206C72.131 14.171 63.4 21.993 54.98 25.643l1.012-5.266a2 2 0 0 0 .034-.293zM48.74 53.122l6.312-32.839a1.5 1.5 0 0 0-1.473-1.783H33.552a1.5 1.5 0 0 0-1.456 1.859l8.168 33.158A11.46 11.46 0 0 1 45 52.5c1.288 0 2.548.212 3.74.622z"/><path d="M36.492 70.973A10.955 10.955 0 0 1 34 64c0-6.075 4.925-11 11-11s11 4.925 11 11c0 2.497-.832 4.8-2.234 6.646A21.435 21.435 0 0 0 45.5 69a21.42 21.42 0 0 0-9.008 1.973z"/><path d="M5.995 106.983A21.49 21.49 0 0 1 5 100.5C5 88.626 14.626 79 26.5 79c.275 0 .549.005.821.015C31.131 72.996 37.85 69 45.5 69c7.64 0 14.348 3.985 18.162 9.989l.158.076A21.798 21.798 0 0 1 65.5 79C77.374 79 87 88.626 87 100.5c0 2.26-.349 4.437-.995 6.483.06.267.117.535.172.804A21.425 21.425 0 0 1 92 122.5c0 9.398-6.03 17.388-14.432 20.311C75.57 152.62 66.898 160 56.5 160a21.4 21.4 0 0 1-10.965-3.003 41.608 41.608 0 0 1-1.833-.06A21.417 21.417 0 0 1 34.5 159c-10.154 0-18.664-7.04-20.917-16.504C5.627 139.343 0 131.579 0 122.5a21.425 21.425 0 0 1 5.823-14.713c.055-.27.112-.537.172-.804z"/><circle cx="46" cy="117" r="24"/></g></svg>