<svg width="71" height="71" viewBox="0 0 71 71" xmlns="http://www.w3.org/2000/svg"><title>watch</title><g stroke="#E60000" fill="none" fill-rule="evenodd"><path d="M68.194 12.332l-9.526-9.526a2.993 2.993 0 0 1 2.288.874l6.364 6.364c.628.628.92 1.466.874 2.288zM12.332 68.194a2.993 2.993 0 0 1-2.288-.874L3.68 60.956a2.993 2.993 0 0 1-.874-2.288l9.526 9.526z" fill="#FFF"/><path d="M61.602 24.247L46.77 9.414a2.04 2.04 0 0 0-.017-.016l7.839-7.84a2 2 0 0 1 2.828 0L69.441 13.58a2 2 0 0 1 0 2.828l-7.839 7.839zM26.247 59.602l-9.839 9.84a2 2 0 0 1-2.828 0L1.559 57.42a2 2 0 0 1 0-2.828l9.839-9.839.016.017 14.833 14.832z"/><path d="M53.677 49.349l.212.212a2 2 0 1 1-2.828 2.828l-.258-.257a22.134 22.134 0 0 0 2.874-2.783z" stroke-width="2" fill="#FFF"/><path d="M58.563 30.615c-1.803-8.912-8.992-15.871-18.024-17.332l3.386-3.385a2 2 0 0 1 2.828 0l14.85 14.849a2 2 0 0 1 0 2.828l-3.04 3.04zM32.615 56.563l-3.54 3.54a2 2 0 0 1-2.828 0l-14.85-14.85a2 2 0 0 1 0-2.828l3.886-3.886c1.46 9.032 8.42 16.221 17.332 18.024z"/><circle cx="37" cy="35" r="22"/></g></svg>