<svg width="238" height="64" viewBox="0 0 238 64" xmlns="http://www.w3.org/2000/svg"><title>Новый лого Капитал белый</title><g fill="none" fill-rule="evenodd"><path fill="#FFF" d="M.067 52.211h237.204v2.156H.067zM100.85 30.922h-7.545c-.337-.943-.673-1.886-.943-2.83a54.559 54.559 0 0 0-1.01-2.627c-.27-.606-.54-1.078-.741-1.55-.27-.403-.54-.808-.944-1.077a3.863 3.863 0 0 0-1.28-.674c-.471-.135-1.078-.202-1.751-.202v6.063c0 .337.067.607.202.876.135.27.337.472.674.606.202.068.471.135.875.27.405.067.809.135 1.078.135v1.077H78.821v-1.077c.202 0 .606-.068 1.01-.068.472-.067.809-.135 1.011-.202.337-.135.54-.337.674-.539.135-.27.202-.539.202-.876v-14.08c0-.336-.067-.606-.202-.808-.135-.202-.337-.404-.741-.606-.27-.135-.607-.202-1.078-.337-.404-.068-.741-.135-.943-.202v-1.078h10.644v1.078c-.27 0-.606.067-1.01.134a10.84 10.84 0 0 0-.944.203c-.337.134-.606.336-.74.606-.136.27-.203.539-.203.876v6.534h.876c.337 0 .74-.067 1.145-.134a2.637 2.637 0 0 0 1.078-.674 7.732 7.732 0 0 0 1.482-2.021 19.4 19.4 0 0 0 .876-2.089c.27-.808.539-1.414.74-1.953.203-.54.675-1.145 1.348-1.752a2.82 2.82 0 0 1 1.213-.74c.472-.203 1.01-.27 1.55-.27.943 0 1.684.27 2.223.673.539.472.808 1.078.808 1.82 0 .808-.202 1.414-.674 1.886-.471.471-1.01.673-1.751.673-.472 0-.876-.134-1.28-.404s-.943-.74-1.482-1.482c-.27.27-.54.741-.741 1.347-.203.607-.405 1.146-.607 1.55a8.402 8.402 0 0 1-1.078 2.088 5.18 5.18 0 0 1-1.212 1.213v.27a8.22 8.22 0 0 1 3.233 1.684c.876.808 1.55 1.751 2.089 2.896.202.472.471 1.01.74 1.55.27.539.472 1.01.675 1.415.27.606.539 1.01.808 1.212.27.202.472.337.674.337.202.067.471.067.808.135.337.067.54.067.741.067v1.078h.068zm21.963 0v-1.078c-.27 0-.607-.067-.944-.135a2.642 2.642 0 0 1-.875-.336c-.337-.202-.607-.405-.809-.674-.202-.202-.337-.472-.471-.741-.741-1.684-1.617-3.84-2.628-6.467a876.62 876.62 0 0 0-4.244-10.577h-2.762c-1.28 3.166-2.493 5.995-3.57 8.623-1.078 2.627-2.156 5.187-3.234 7.815a4.67 4.67 0 0 1-.674 1.145c-.27.337-.606.606-.943.808-.202.135-.539.27-.943.337-.404.067-.741.135-1.01.135v1.078h8.083v-1.078c-1.077-.068-1.818-.27-2.223-.472-.471-.202-.673-.471-.673-.74 0-.068 0-.27.067-.472 0-.202.135-.607.337-1.146.135-.404.337-.875.471-1.347.203-.539.337-.943.54-1.347h6.804l1.684 4.11c.067.134.135.269.135.403v.27c0 .202-.337.404-1.011.539-.674.134-1.28.202-1.752.27v1.077h10.645zm-10.308-8.017h-5.726l2.83-7.208 2.896 7.208zm34.156 8.017h-10.577v-1.078c.202 0 .54-.067.943-.067.405 0 .741-.068.876-.135.337-.135.606-.337.741-.539s.202-.539.202-.876V12.733h-8.084v15.292c0 .337.067.607.202.876.135.27.337.472.674.606.202.068.471.135.876.27.404.067.74.135 1.01.135v1.077h-10.577v-1.077c.202 0 .607-.068 1.01-.068.472-.067.81-.135 1.011-.202.337-.135.54-.337.674-.539.135-.27.202-.539.202-.876v-14.08c0-.336-.067-.606-.202-.808-.135-.202-.337-.404-.74-.606-.27-.135-.607-.202-1.079-.337-.404-.068-.74-.135-.943-.202v-1.078h23.714v1.078c-.27 0-.607.067-1.01.134l-1.011.203c-.337.134-.607.336-.741.538-.135.27-.203.54-.203.876v13.946c0 .336.068.606.203.875.134.202.336.405.74.607.203.067.54.202.944.27.404.066.74.134 1.01.134v1.145h.135zm12.733 0H148.48v-1.078c.27 0 .606-.067 1.078-.067.471 0 .808-.068 1.01-.135.337-.135.607-.337.674-.539.135-.202.202-.539.202-.876v-14.08c0-.336-.067-.606-.202-.808-.135-.27-.337-.404-.674-.606-.202-.068-.539-.202-1.01-.27a38.438 38.438 0 0 1-1.145-.202v-1.078h10.913v1.078c-.27 0-.606.067-1.01.135-.404.067-.741.135-1.078.202-.337.135-.606.337-.741.539-.135.27-.202.539-.202.876v13.945c0 .337.067.606.202.876s.337.404.74.606c.203.067.54.135.944.27.472.067.808.134 1.145.134v1.078h.068zm20.143-14.08h-1.078c-.27-.808-.741-1.751-1.347-2.695-.607-.943-1.213-1.482-1.752-1.55-.27-.066-.674-.066-1.078-.066s-.808-.068-1.145-.068h-.674v15.428c0 .336.068.606.202.875.135.27.337.472.674.607.202.067.539.202 1.01.27.472.066.809.134 1.146.201v1.078H164.58v-1.078c.27 0 .674-.067 1.145-.135.472-.067.809-.134 1.01-.202.338-.134.607-.336.742-.606.135-.27.202-.539.202-.876V12.463h-.674c-.337 0-.673 0-1.145.068-.404 0-.808.067-1.078.067-.539.067-1.145.606-1.751 1.55-.607.943-1.078 1.818-1.348 2.694h-1.078v-5.659h19.066v5.66h-.135zm22.5 14.08v-1.078c-.269 0-.605-.067-.942-.135a2.642 2.642 0 0 1-.876-.336c-.337-.202-.606-.405-.808-.674-.203-.202-.337-.472-.472-.741-.741-1.684-1.617-3.84-2.627-6.467a879.71 879.71 0 0 0-4.245-10.577h-2.762c-1.28 3.166-2.492 5.995-3.57 8.623-1.078 2.627-2.156 5.187-3.234 7.815a4.67 4.67 0 0 1-.674 1.145c-.27.337-.606.606-.943.808-.202.135-.539.27-.943.337-.404.067-.741.135-1.01.135v1.078h8.084v-1.078c-1.078-.068-1.82-.27-2.223-.472-.472-.202-.674-.471-.674-.74 0-.068 0-.27.067-.472 0-.202.135-.607.337-1.146.135-.404.337-.875.472-1.347.202-.539.337-.943.539-1.347h6.804l1.684 4.11c.067.134.135.269.135.403v.27c0 .202-.337.404-1.01.539-.674.134-1.28.202-1.752.27v1.077h10.644zm-10.24-8.017h-5.725l2.83-7.208 2.896 7.208zm16.843-10.172c-.27-.135-.674-.202-1.145-.337-.54-.068-.876-.135-1.01-.202v-1.078h17.65v1.078c-.27 0-.607.067-1.01.134l-1.011.203c-.337.134-.607.336-.741.538-.135.27-.202.54-.202.876v13.946c0 .336.067.606.202.875.134.202.336.405.74.607.203.067.54.202.944.27.404.066.74.134 1.01.134v1.078h-10.711v-1.078c.27 0 .606-.068 1.078-.068.471 0 .74-.067.943-.134.337-.135.606-.337.674-.54.134-.201.202-.538.202-.875V12.53h-4.716c-.135 3.302-.472 6.198-1.01 8.556-.54 2.358-1.213 4.312-1.954 5.794-.809 1.617-1.685 2.695-2.56 3.368-.876.674-1.752 1.01-2.493 1.01-.606 0-1.145-.066-1.55-.269-.404-.202-.673-.404-.875-.673a3.63 3.63 0 0 1-.472-.876c-.067-.337-.135-.606-.135-.876 0-.876.27-1.55.809-2.02.539-.472 1.145-.675 1.886-.675.472 0 1.01.135 1.482.472.472.337.943.741 1.415 1.28a19.9 19.9 0 0 0 1.145-2.156c.404-.943.741-1.886 1.078-2.964.337-1.213.606-2.358.809-3.503.202-1.145.336-2.493.336-3.907 0-.607-.067-1.146-.134-1.483-.068-.336-.337-.673-.674-.875z"/><g transform="translate(11.453)"><circle fill="#FFF" cx="31.865" cy="32.067" r="31.596"/><circle fill="#DC0812" cx="31.865" cy="32.067" r="29.642"/><circle fill="#FFF" cx="31.865" cy="32.067" r="27.958"/><circle fill="#DC0812" cx="55.512" cy="33.067" r="1.078"/><circle fill="#DC0812" cx="8.152" cy="33.067" r="1.078"/><path d="M44.935 43.924h-9.162c-.405-1.145-.809-2.29-1.146-3.436-.404-1.145-.808-2.223-1.28-3.233-.336-.741-.606-1.348-.943-1.887-.337-.539-.673-.943-1.145-1.28-.404-.336-.943-.606-1.55-.808-.606-.202-1.347-.27-2.155-.27v7.411c0 .404.067.741.27 1.01.134.337.47.54.808.674a6.1 6.1 0 0 0 1.077.27c.54.067.944.134 1.28.202v1.28H18.055v-1.28c.27 0 .673-.068 1.212-.135.54-.067.944-.135 1.213-.202.404-.135.674-.337.876-.674.135-.27.202-.673.202-1.078v-16.91c0-.403-.067-.74-.202-1.01s-.404-.539-.876-.673a9.766 9.766 0 0 0-1.28-.404c-.539-.135-.943-.203-1.145-.203v-1.28h12.934v1.28c-.336 0-.74.068-1.28.135-.471.068-.875.202-1.145.27-.404.134-.74.404-.876.673a2.703 2.703 0 0 0-.202 1.01v7.95h1.078a5.12 5.12 0 0 0 1.415-.202 3.142 3.142 0 0 0 1.347-.808c.809-.809 1.415-1.617 1.82-2.425.403-.809.74-1.617 1.01-2.493.337-.943.673-1.752.943-2.425.27-.674.808-1.348 1.617-2.156.404-.404.876-.674 1.482-.943.606-.202 1.213-.337 1.886-.337 1.145 0 2.021.27 2.695.876.674.606 1.01 1.28 1.01 2.155 0 .944-.269 1.752-.808 2.29-.539.54-1.28.81-2.088.81-.54 0-1.078-.135-1.55-.472-.539-.337-1.145-.943-1.819-1.82-.337.338-.606.877-.876 1.618-.27.74-.471 1.347-.673 1.886a11.195 11.195 0 0 1-1.28 2.56c-.404.606-.876 1.078-1.415 1.415v.27c1.55.403 2.897 1.077 3.907 2.088 1.01.943 1.887 2.088 2.493 3.503.27.606.606 1.212.876 1.886.27.674.539 1.213.808 1.684.337.741.674 1.213 1.01 1.415.338.202.607.337.81.404.269.068.605.135.942.135.405.067.674.067.943.135v1.55h-.134zM8.893 27.352c.067-.068.134-.135.27-.135.066-.068.201-.068.336 0a.51.51 0 0 1 .337.135c.067.067.135.202.202.27.067.134.067.269.067.403 0 .135 0 .337-.067.54l-.27 1.414h-.134v-.27c0-.067 0-.067-.068-.134 0 0-.067-.068-.134-.068l-1.887-.336h-.134l-.068.067c0 .067-.067.067-.067.135 0 .067-.068.067-.068.134h-.134l.27-1.414c.067-.337.134-.607.269-.741.134-.135.27-.203.471-.135.068 0 .135.067.202.067.068.068.135.135.135.202.067.068.067.135.067.27 0 .067 0 .202.068.27h.067a.51.51 0 0 1 .135-.27c0-.202.067-.337.135-.404zm-.944.471c-.134 0-.269 0-.336.068-.068.067-.135.202-.202.336v.135l1.01.202v-.067c.067-.202 0-.337-.067-.472l-.405-.202zm1.28.135c-.202 0-.336 0-.471.067-.135.068-.202.27-.202.472v.135l1.01.202c.068 0 .068 0 .135-.068.067-.067.067-.134.067-.202 0-.135 0-.27-.067-.404a.612.612 0 0 0-.472-.202zm1.685-3.57l-.135-.068c0 .067 0 .067-.067.135 0 .067-.068.067-.068.134-.067.068-.067.068-.135.068h-.134c-.27 0-.54.067-.943.135-.405.067-.876.067-1.55.134l-.135.337 1.01.809c.338.27.607.471.944.74l.135.135c0 .068.067.068.067.135v.27l.135.067.27-1.078-.135-.067c-.068.134-.068.202-.135.27-.067.067-.067.067-.135.067h-.067s-.068-.068-.135-.068a.145.145 0 0 1-.135-.135c-.067-.067-.134-.067-.134-.134l.27-.876.605-.067h.135s.067.067 0 .134v.27l.135.067.337-1.415zm-1.415 1.077l-.202.741-.876-.673 1.078-.068zm3.503-5.254l-2.156 4.244-.134-.068s0-.067.067-.134c0-.068.067-.135.067-.135v-.135l-.067-.067-1.684-.876H8.96c-.067 0-.067 0-.135.067l-.134.135c-.068.067-.068.067-.068.135l-.135-.068.674-1.28.135.068c0 .067 0 .067-.068.135v.269l.068.067 1.684.876h.135a.145.145 0 0 0 .135-.135c0-.067.067-.067.067-.134 0 0 .067-.068.067-.135s.068-.067.068-.135c0-.067.067-.067.067-.134v-.135l-.067-.068-1.752-.875h-.135c-.067 0-.067 0-.134.067l-.068.067c0 .068-.067.068-.067.068l-.135-.068.606-1.212.135.067c0 .067 0 .067-.067.135v.269l.067.068 1.684.875h.135a.145.145 0 0 0 .135-.134c0-.068.067-.068.067-.135 0 0 .068-.067.068-.135 0-.067.067-.067.067-.134 0-.068.067-.068.067-.135v-.135l-.067-.067-1.752-.876h-.134c-.068 0-.068 0-.135.067l-.067.068c0 .067-.068.067-.068.067l-.135-.067.674-1.28.135.067c0 .067 0 .067-.068.135 0 .067 0 .067-.067.134v.135l.067.068 1.685.875h.134c.068 0 .068 0 .135-.067 0 0 .068-.067.068-.135.067-.067.067-.067.067-.134h.404zm1.752-2.426l-.135-.067-.067.067c-.068 0-.068.068-.135.068-.068 0-.068.067-.135.067h-.135c-.27-.067-.539-.135-.943-.202-.404-.067-.876-.202-1.55-.337l-.201.337c.27.404.471.74.673 1.078l.607 1.01a.209.209 0 0 1 .067.135v.202c0 .068 0 .068-.067.135 0 .067-.068.067-.068.135l.135.067.674-.876-.135-.067c-.067.135-.202.202-.202.202-.068.067-.135.067-.135 0l-.067-.067-.135-.135c-.067-.068-.067-.135-.135-.135-.067-.067-.067-.135-.134-.135l.538-.74.607.134h.067v.135c-.067.067-.067.135-.135.202l.135.067 1.01-1.28zm-1.685.472l-.471.674-.606-.876 1.077.202zm2.426-2.425c.134.067.202.067.337 0a.51.51 0 0 0 .27-.135l-1.146-1.145-.068.067c-.067.067-.134.135-.134.27v.269c0 .067.067.135.134.27l.203.201.134.135c.068-.067.135 0 .27.068zm1.212-1.213c.068.135.068.202 0 .337a.51.51 0 0 1-.134.27l-1.146-1.146.068-.067c.067-.068.134-.135.27-.135h.269c.067 0 .134.067.27.135l.201.202c.068.067.068.134.135.202 0 .067.067.135.067.202zm.472-.135c0 .135-.067.27-.202.472-.068.135-.202.27-.337.404l.067.067.068.068h.134s.068 0 .135-.068c.068-.067.068-.067.135-.067l.135.135-1.01 1.01-.136-.134.068-.068c.067-.067.067-.067.067-.135v-.134s0-.068-.067-.068l-.068-.067c-.134.135-.27.27-.404.337-.135.067-.27.135-.471.135-.135 0-.27 0-.405-.068a1.41 1.41 0 0 1-.404-.27c-.067-.067-.135-.201-.202-.336s-.067-.27-.067-.404c0-.135.067-.27.134-.405.068-.134.203-.336.405-.471-.068-.068-.068-.068-.135-.068h-.135c-.067 0-.067.068-.135.068-.067 0-.067.067-.134.067l-.135-.135 1.01-.943.135.135-.067.067c0 .068-.067.068-.067.135v.135s.067.067.067.135c.202-.135.337-.27.471-.337a1.24 1.24 0 0 1 .472-.135c.135 0 .27 0 .404.067a.93.93 0 0 1 .27.203c.134.134.202.269.202.404.202 0 .27.134.202.27zm2.021-.606l-.067-.135c-.068 0-.068.068-.135.068s-.067.067-.135.067h-.135l-.067-.067-1.145-1.55c0-.067-.068-.067-.068-.135 0-.067 0-.067.068-.134 0 0 .067-.068.067-.135.068-.068.068-.068.135-.068l-.067-.134-1.213.876.067.134c.068 0 .068-.067.135-.067s.067-.067.135-.067h.134l.068.067 1.145 1.55c0 .067.067.067.067.134s0 .067-.067.135l-.067.067c-.068.068-.068.068-.135.068l.067.134 1.213-.808zm2.897-1.82l-1.28.742-.068-.135s.068-.067.135-.067l.068-.067c0-.068.067-.068.067-.135 0-.068 0-.068-.067-.135l-.472-.808-1.01.606.471.808c0 .068.067.068.067.068h.135s.068 0 .135-.068c.067 0 .135-.067.135-.067l.067.135-1.28.74-.067-.134s.067-.067.134-.067c.068-.068.068-.068.135-.068 0-.067.067-.067.067-.134 0-.068 0-.068-.067-.135l-.943-1.684c0-.068-.067-.068-.067-.068h-.135c-.068 0-.068 0-.135.068-.067 0-.067 0-.135.067l-.067-.135 1.28-.74.067.134s-.067.067-.134.067l-.068.068c-.067.067-.067.067-.067.134 0 .068 0 .068.067.135l.404.674 1.011-.606-.404-.674c0-.068-.068-.068-.068-.068h-.269c-.067 0-.067 0-.135.068l-.067-.135 1.28-.74.067.134c-.067 0-.067.067-.135.067-.067 0-.067.068-.134.068 0 .067-.068.067-.068.134 0 .068 0 .068.068.135l.943 1.684c0 .068.067.068.067.068h.135s.067 0 .135-.068c.067 0 .067-.067.134-.067l.068.202zm2.83-1.077l-.068-.135h-.27c-.067 0-.067 0-.134-.067-.068 0-.068-.067-.068-.067l-.673-.674c-.27-.27-.607-.674-1.078-1.145l-.337.134v2.628c0 .067-.067.134-.067.134l-.068.068c-.067 0-.067.067-.135.067l.068.135 1.01-.404-.067-.135a.732.732 0 0 1-.337.067c-.067 0-.135 0-.135-.067v-.606l.876-.337.404.471v.068s0 .067-.134.135c-.068.067-.135.067-.202.134l.067.135 1.347-.539zm-1.752-.539l-.741.27V9.634l.74.808zm4.783-.27l-1.415.337v-.134s.068 0 .135-.068c.067 0 .067-.067.135-.067.067 0 .067-.067.067-.067v-.135l-.202-.943-1.145.27.202.875c0 .067 0 .067.067.135 0 0 .067.067.135.067h.269v.135l-1.414.337v-.135s.067 0 .134-.067c.068 0 .135-.068.135-.068.067 0 .067-.067.067-.067v-.135l-.404-1.886c0-.068 0-.068-.067-.135 0 0-.068-.067-.135-.067h-.269v-.135l1.414-.337v.135c-.067 0-.067 0-.134.067-.068 0-.068.068-.135.068s-.067.067-.067.067v.135l.202.808 1.145-.27-.202-.74c0-.068 0-.068-.068-.135 0 0-.067-.068-.134-.068h-.27v-.134l1.415-.337v.135c-.067 0-.067 0-.135.067-.067 0-.067.067-.135.067-.067 0-.067.068-.067.068v.134l.404 1.887c0 .067 0 .067.068.135 0 0 .067.067.134.067h.27v.135zm1.55-.067c.134 0 .336-.067.404-.134.134-.068.202-.135.336-.203a.912.912 0 0 0 .203-.27.515.515 0 0 0 .134-.336l-.202-.067c-.067.202-.202.404-.337.471a.612.612 0 0 1-.471.202h-.337c-.135 0-.202-.067-.27-.202-.067-.067-.134-.202-.202-.337a1.27 1.27 0 0 1-.134-.538 1.7 1.7 0 0 1 .067-.876c.067-.202.27-.337.472-.404.202 0 .336 0 .538.134.135.135.27.337.405.607h.134l-.134-1.01h-.135l-.135.134c-.067-.068-.202-.068-.337-.068h-.404a.765.765 0 0 0-.539.203.69.69 0 0 0-.404.336c-.135.135-.202.337-.27.472-.067.202-.067.404-.067.606 0 .202.068.404.202.54.068.134.202.269.337.403a.728.728 0 0 0 .472.203c.27.134.471.134.673.134zm3.705-2.56c.134.135.202.27.336.472.068.202.135.404.135.606 0 .202-.067.404-.135.54-.067.201-.202.336-.269.47-.135.135-.27.203-.472.27-.202.068-.404.135-.606.068a1.27 1.27 0 0 1-.539-.135c-.202-.068-.337-.135-.471-.27-.135-.134-.203-.27-.337-.471-.135-.202-.135-.337-.135-.607 0-.202.067-.404.135-.606.067-.202.202-.337.337-.471.134-.135.27-.203.471-.27.202-.067.404-.067.606-.067.203 0 .405.067.54.134.134.068.269.203.404.337zm-.54 1.887c.068-.135.135-.27.135-.405 0-.134.068-.336.068-.471v-.472c0-.135-.068-.27-.135-.404-.067-.135-.135-.202-.202-.27a.515.515 0 0 0-.337-.134.555.555 0 0 0-.539.337c-.135.202-.202.539-.202.943v.471c0 .135.067.27.135.405a.93.93 0 0 0 .202.27c.067.066.202.066.337.134.134 0 .202 0 .337-.068.067-.134.134-.202.202-.336zm3.571-.405l.202.202c.068.068.068.203.068.337 0 .135-.068.27-.135.337a.907.907 0 0 1-.27.202c-.134.068-.269.068-.404.068h-.539l-1.414-.202v-.135h.269c.067 0 .067-.068.135-.068 0 0 .067-.067.067-.134l.27-1.887v-.134l-.068-.068c-.067 0-.067-.067-.134-.067-.068 0-.068 0-.135-.067v-.135l1.482.202c.337.067.606.135.74.27a.605.605 0 0 1 .203.47c0 .068-.067.136-.067.203-.068.067-.135.135-.202.135-.068.067-.135.067-.27.067-.067 0-.202.068-.27.068v.067a.51.51 0 0 1 .27.135s.135.067.202.134zm-.539-.875c0-.135 0-.27-.067-.337-.067-.068-.202-.135-.337-.202h-.135l-.134 1.01h.067c.202 0 .337 0 .472-.067.067-.135.134-.27.134-.404zm0 1.28c0-.203 0-.337-.134-.472-.068-.135-.27-.202-.472-.202h-.135l-.135 1.01c0 .068.068.068.068.135.067.068.135.068.202.068.135 0 .27 0 .404-.135.135-.068.135-.202.202-.404zm3.57 1.684l.068-.135c-.067 0-.067 0-.135-.067-.067 0-.067-.068-.134-.068-.068-.067-.068-.067-.068-.134v-.135c0-.27-.067-.54-.134-.943-.068-.405-.068-.876-.135-1.55L38.4 7.95l-.808 1.011c-.27.337-.472.606-.741.943l-.135.135c-.068 0-.068.067-.135.067h-.269l-.068.135 1.078.27.067-.135c-.134-.068-.202-.068-.269-.135s-.067-.067-.067-.135v-.067s.067-.067.067-.135c0-.067.067-.135.135-.135.067-.067.067-.134.134-.134l.876.27.068.605v.135s-.068.068-.135 0h-.27l-.067.135 1.415.337zM38.266 9.7l-.74-.202.673-.876.067 1.078zm3.773 2.29l1.01-1.953-.606-.337c-.202.337-.404.674-.74 1.01-.27.337-.607.607-.944.809l1.078.539h.135c.067 0 .067 0 .067-.067zm-.943-.134c-.068 0-.135-.068-.135-.068-.067 0-.067-.067-.135-.067-.067 0-.202 0-.404.067-.135.068-.27.135-.404.27l-.135-.067.404-.741.27.134c.27-.134.539-.404.876-.673.336-.27.539-.54.673-.809.068-.067.068-.135.068-.135 0-.067 0-.067-.068-.134l-.134-.135c-.068-.067-.068-.067-.135-.067l.067-.135 2.223 1.145-.067.135c-.067 0-.067 0-.135-.068-.067 0-.067 0-.135-.067h-.134l-.068.067-.875 1.752c0 .067-.068.135 0 .135 0 .067.067.067.134.135l.135.067-.404.74-.135-.066V12.8c-.067-.202-.067-.27-.135-.337 0 0-.067-.067-.134-.067-.068 0-.135-.068-.135-.068l-.943-.471zm5.254.27c-.067-.203-.134-.338-.269-.472l-.404-.404c-.202-.135-.337-.203-.54-.203-.201-.067-.403-.067-.538 0-.202.068-.337.135-.54.203a2.93 2.93 0 0 0-.403.471c-.135.202-.202.337-.202.54v.538c.067.202.134.337.27.472l.403.404c.202.135.405.202.607.27h.539c.202-.068.336-.135.471-.203l.404-.404c.135-.202.202-.404.202-.539.068-.27.068-.472 0-.674zm-1.482 1.414c.135-.067.202-.135.337-.27.068-.134.202-.269.27-.404l.202-.404c.067-.135.067-.27.135-.404v-.337a.93.93 0 0 0-.203-.27.505.505 0 0 0-.606 0c-.202.135-.404.337-.674.674l-.202.405c-.067.134-.067.269-.134.404 0 .134 0 .27.067.337s.135.202.202.27c.135.066.202.066.337.066.067 0 .202 0 .27-.067zm3.032 3.1l-1.078-.943.067-.135s.068.067.135.067c.068.068.068.068.135.068h.135c.067 0 .067-.068.067-.068l1.415-1.616-.809-.741-1.347 1.616s-.067.068-.067.135v.135s.067.067.067.135c.067.067.067.067.067.134l-.067.135-1.078-.943.067-.135s.068.068.135.068c.068.067.068.067.135.067h.135c.067 0 .067-.067.067-.067l1.28-1.415c0-.068.067-.068.067-.068v-.134c0-.068-.067-.068-.067-.135-.067-.067-.067-.067-.067-.135l.067-.134 2.493 2.155-.068.135s-.067-.067-.134-.067c-.068 0-.068-.068-.135-.068h-.135c-.067 0-.067.068-.067.068l-1.28 1.482c0 .067-.068.067-.068.135v.134s.068.068.068.135c.067.067.067.067.067.135l-.202-.135zm3.502.472c0 .202-.067.336-.135.539-.067.202-.202.336-.336.471-.135.135-.337.202-.472.27-.202.067-.337.067-.539.067s-.337-.067-.539-.135c-.202-.067-.337-.202-.472-.404-.134-.135-.202-.337-.269-.472-.067-.202-.067-.336-.067-.539 0-.202.067-.336.134-.538.068-.203.202-.337.337-.472.135-.135.337-.27.54-.337.201-.067.336-.067.538-.067s.337.067.54.134c.201.068.336.203.47.337.135.135.203.337.27.472-.067.27 0 .471 0 .674zm-1.819.875c.135 0 .27-.067.404-.134.135-.068.27-.202.405-.27l.336-.337c.068-.134.203-.202.203-.337.067-.134.067-.202.067-.336 0-.135-.067-.202-.135-.337-.135-.202-.337-.202-.606-.202a1.69 1.69 0 0 0-.809.471c-.134.135-.27.202-.336.337-.068.135-.203.202-.203.337-.067.135-.067.202-.067.337s.067.202.135.337c.067.067.202.134.27.202.134 0 .269-.068.336-.068zm2.223 4.312l.135-.067s0-.068-.067-.135c0-.068 0-.068-.068-.135v-.135l.068-.067 1.684-.943c.067 0 .067-.068.135-.068.067 0 .067 0 .134.068l.068.067c0 .068.067.068.067.135l.135-.067-.606-1.01s-.068 0-.135.066c-.068 0-.135.068-.202.068l-1.55.202 1.213-1.482-.606-1.078-.135.067c0 .068.067.068.067.135v.202c0 .067 0 .067-.067.135l-.135.135-1.145.673c-.135.068-.27.135-.337.135h-.202c-.068 0-.068-.067-.135-.135-.067-.067-.067-.067-.067-.134l-.135.067.606 1.01.135-.067s0-.067-.067-.202v-.202c0-.068.067-.135.134-.202a.93.93 0 0 1 .27-.202l1.415-.809-1.28 1.55a.93.93 0 0 0-.202.27c-.068.134-.135.134-.203.201l.135.202 2.56-.404-1.751 1.01c-.068 0-.068.068-.135.068-.068 0-.068 0-.135-.067l-.067-.068c-.068-.067-.068-.067-.068-.134l-.134.067.673 1.28zm3.234 1.55c-.067.202-.135.336-.27.471-.134.135-.269.27-.538.337-.203.067-.337.135-.54.135-.201 0-.336 0-.538-.068-.202-.067-.337-.202-.472-.337a1.467 1.467 0 0 1-.337-.539c-.067-.202-.134-.336-.134-.539 0-.202 0-.336.067-.538.067-.135.135-.337.27-.472.134-.135.269-.27.47-.337.203-.067.405-.135.607-.135.202 0 .404.068.54.135.134.067.336.202.47.337.136.135.203.337.338.472.067.202.134.404.134.538 0 .203 0 .337-.067.54zm-2.021.202h.404c.135 0 .337-.068.472-.135l.404-.202c.135-.068.27-.135.337-.27.067-.067.135-.202.202-.337v-.336a.507.507 0 0 0-.472-.337c-.27 0-.539 0-.943.202l-.404.202c-.135.067-.27.135-.337.27a.51.51 0 0 0-.135.269v.337a.972.972 0 0 0 .202.27c.068.067.203.067.27.067zm2.425 2.964l.809-.202-.674-2.358-.135.067v.27c0 .067 0 .067-.067.134 0 0-.068.068-.135.068l-1.819.539h-.135c-.067 0-.067 0-.067-.068 0 0-.067-.067-.067-.134 0-.068-.068-.135-.068-.135l-.134.067.404 1.415.135-.067v-.337c0-.068 0-.068.067-.135 0 0 .067-.067.135-.067l2.088-.607.135.404c0 .068 0 .135.067.203v.134c0 .068 0 .135-.067.135 0 .067-.068.135-.135.202-.067.068-.067.135-.135.135-.067.067-.134.067-.134.135l-.068.202zM54.03 30.45l-.202-1.483h.135c0 .068.067.135.067.27 0 .067.068.135.068.135h.135l.539-.27-.135-.943c-.068 0-.135 0-.202-.067-.068 0-.135 0-.202-.068h-.203c-.067 0-.067.068-.067.135v.337h-.135l-.134-1.078h.134c0 .067 0 .067.068.135 0 .067.067.067.067.134l.135.135c.067 0 .135.068.135.068.404.134.74.202 1.145.336.404.135.808.202 1.212.337l.068.404c-.606.337-1.01.607-1.348.741-.336.203-.606.337-.808.472-.067 0-.067.067-.067.067s-.068.068-.068.135v.27l-.337-.202zm.876-1.55l.943-.539-1.01-.27.067.81zM11.25 37.861v-.404l.203-.068 1.078 3.1-.203.067c0-.068-.067-.135-.067-.135 0-.067-.067-.135-.067-.135-.068-.067-.068-.067-.135-.067h-.135l-2.425.876c-.067 0-.135.067-.135.067 0 .067-.067.067-.067.135v.202c0 .067 0 .135.067.202l-.202.067-.674-1.886.203-.067c0 .067.067.134.067.202 0 .067.067.135.067.135.068.067.068.067.135.067h.135l2.762-.943-.27-.809c-.606.202-1.078.27-1.55.337-.47.068-.808.068-1.144 0-.337-.067-.607-.135-.741-.202a.898.898 0 0 1-.337-.404c-.068-.135-.068-.202-.068-.27 0-.067 0-.134.068-.202 0-.067.067-.067.134-.134.068 0 .135-.068.135-.068a.43.43 0 0 1 .404 0 .526.526 0 0 1 .27.27v.27c0 .134-.067.201-.135.336.135 0 .27.067.472.067H9.7c.202 0 .472-.067.674-.067.202-.067.471-.067.673-.202.135-.067.203-.067.27-.135-.135-.067-.067-.135-.067-.202zm2.56 5.928c.068-.202.068-.471 0-.74a3.284 3.284 0 0 0-.269-.742c-.135-.27-.337-.404-.539-.606-.202-.135-.404-.27-.674-.337s-.471-.067-.74-.067c-.27 0-.54.135-.81.27a1.59 1.59 0 0 0-.605.538c-.135.202-.27.404-.27.674-.067.27-.067.472 0 .741.068.27.135.472.27.741.134.27.336.472.539.674.202.134.404.27.673.337.202.067.472.067.741 0 .27-.068.472-.135.741-.27a1.59 1.59 0 0 0 .607-.539c.202-.202.27-.471.337-.674zm-2.56.742c-.134 0-.336 0-.471-.068-.135-.067-.27-.135-.337-.337-.067-.134-.135-.27-.135-.471 0-.135.068-.27.135-.404.067-.135.202-.27.404-.405.135-.134.337-.27.54-.404.47-.27.875-.404 1.212-.404.337 0 .606.135.74.404.068.135.136.337.136.472 0 .134-.068.27-.202.471-.068.135-.203.27-.405.404-.134.135-.336.27-.539.337a2.393 2.393 0 0 1-.606.27 1.249 1.249 0 0 1-.471.135zm3.84 5.928l-1.28-1.482.135-.135.135.135c.067.067.135.067.135.135.067 0 .134.067.134.067.068 0 .135-.067.135-.067l2.089-1.752-3.234 1.145-.202-.27c0-.067.067-.134.202-.336l.202-.404 1.28-2.358-1.684 1.415-.337.336c-.067.068-.067.203-.067.27s0 .135.067.27c.067.134.067.201.135.201l-.135.135-1.01-1.212.134-.135.135.135c.067.067.135.134.202.134s.202 0 .27-.067c.134-.067.202-.135.404-.27l1.347-1.145.202-.202c.068-.067.068-.135.068-.202s0-.135-.068-.202c-.067-.067-.067-.135-.135-.202l.135-.135 1.078 1.28-1.213 2.223 1.954-.673c.068 0 .135-.068.27-.135.067-.068.134-.068.202-.068l1.078 1.213-.135.135-.135-.135-.135-.135c-.067-.067-.134-.067-.134 0-.068 0-.068.068-.135.068l-1.954 1.684c-.067.067-.067.067-.067.135v.202c0 .067.067.067.067.134a.209.209 0 0 1 .068.135l-.202.135zm3.436 1.213c.135-.203.202-.405.135-.607a1.048 1.048 0 0 0-.404-.539s-.068-.067-.135-.067-.067-.067-.067-.067l-.809 1.145v.202l.202.202c.135.135.337.135.54.135.269-.068.404-.202.538-.404zm.876.539a.728.728 0 0 0 .202-.472c0-.135 0-.337-.067-.472-.068-.134-.202-.27-.337-.471a2.93 2.93 0 0 0-.472-.404c-.067-.068-.134-.135-.202-.135-.067-.068-.134-.068-.202-.135l.741-1.078.472.337c.067.067.135.067.202.135.067.067.135.067.135.135.067.067.067.202.134.404 0 .202 0 .404-.067.606l.135.135.606-.876-2.627-1.886-.135.134.135.135c.067.068.067.135.134.135a.209.209 0 0 1 .068.135c0 .067 0 .067-.068.134l-1.482 2.089-.134.135h-.135c-.067 0-.067 0-.135-.068-.067-.067-.135-.067-.202-.067l-.135.135 1.82 1.28c.134.067.269.202.47.269.136.067.338.067.472.067.135 0 .337 0 .472-.067-.067 0 .067-.135.202-.27zm3.705 3.031l-1.819-.808.068-.202c.067 0 .202.067.337.067h.202v-.943l-1.146-.54-.202.203-.202.202-.134.135c0 .067-.068.067-.068.067 0 .068 0 .135.068.202.067.068.202.135.336.27l-.067.202-1.347-.606.067-.203c.067 0 .135.068.202.068h.202c.068 0 .135 0 .202-.068.068-.067.135-.067.202-.134.405-.337.741-.741 1.146-1.078.404-.337.808-.741 1.28-1.213l.471.202c0 .876-.067 1.617-.067 2.089 0 .539-.067.943-.067 1.28v.134c0 .068.067.135.067.203 0 .067.067.067.135.134a.209.209 0 0 0 .134.068v.27zm-1.145-2.156l.067-1.414-1.01 1.01.943.404zm5.726.674c-.067.202-.134.337-.27.472a1.41 1.41 0 0 1-.403.27c-.202.066-.337.066-.54.066-.201 0-.403-.067-.673-.134l-.27-.068-.269 1.01v.136c0 .067.068.067.068.134 0 0 .067.068.134.068.068.067.135.067.202.067l-.067.202-1.886-.539.067-.202h.404c.068 0 .135 0 .135-.067 0 0 .067-.068.067-.135l.674-2.493v-.134c0-.068-.067-.068-.067-.135-.068 0-.068-.067-.202-.135-.068-.067-.135-.067-.135-.067l.067-.202 1.954.539c.471.134.74.27.943.471.067.27.135.54.067.876zm-1.01-.202c.067-.27.067-.472 0-.606-.067-.135-.27-.27-.54-.337l-.201-.068-.404 1.55h.134c.27.067.472.067.674 0 .135-.068.27-.27.337-.54zm3.503 2.695l.202-2.897-.943-.068a7.106 7.106 0 0 1-.404 1.617c-.202.54-.472 1.01-.741 1.482l1.617.135c.067 0 .134 0 .134-.067.068-.068.135-.135.135-.202zm-1.28.336l1.347.135h.203c.067 0 .134 0 .202.068.134.067.27.134.404.336.135.203.202.405.27.607h.201l.068-1.146h-.27c-.134 0-.202-.067-.27-.067-.067-.067-.067-.135-.067-.202l.203-2.627c0-.068 0-.135.067-.135 0-.067.067-.067.135-.067h.404v-.203l-3.369-.27v.203c.068 0 .135 0 .203.067.067 0 .134.068.202.068l.134.135v.202c0 .404-.134.808-.404 1.347a4.577 4.577 0 0 1-.74 1.28h-.338l-.067 1.145h.202c.067-.202.202-.404.337-.539a.584.584 0 0 1 .471-.27h.203c.134-.067.202-.067.27-.067zm11.048-1.01l-1.347.337c-.067-.135-.202-.337-.27-.472-.067-.135-.201-.27-.269-.404-.067-.067-.135-.202-.202-.27-.067-.067-.135-.134-.202-.134-.067-.068-.135-.068-.27-.068-.067 0-.202 0-.336.068l.27 1.078c0 .067.066.134.066.134.068.068.068.068.135.068h.404l.068.202-1.954.471-.067-.202c.067 0 .134 0 .202-.067.067 0 .135-.067.202-.067l.135-.135v-.135l-.607-2.492c0-.068-.067-.135-.067-.135 0-.068-.067-.068-.135-.068h-.404l-.067-.202 1.953-.471.068.202c-.068 0-.135.067-.202.067-.068 0-.135.068-.135.068l-.135.134v.135l.27 1.213.134-.068c.068 0 .135-.067.202-.067.068-.067.135-.067.203-.135l.202-.404c0-.135.067-.27.067-.404 0-.135.067-.27.067-.404 0-.135.068-.203.135-.405l.202-.202c.068-.067.135-.067.27-.134.134-.068.337 0 .404.067.135.067.202.135.202.27 0 .134 0 .269-.067.336-.068.068-.135.135-.27.202h-.27c-.067 0-.201-.067-.336-.202-.067.068-.067.135-.067.27 0 .134 0 .202-.068.337 0 .202-.067.336-.135.404-.067.067-.067.202-.134.27v.067c.27 0 .471.067.673.202.202.134.337.27.472.404a.925.925 0 0 1 .202.27l.202.201.202.203c.068 0 .135.067.135 0h.269v.067zm4.177-1.954l-1.819.809-.067-.202c.067-.068.202-.135.27-.203.134-.067.134-.134.134-.202v-.067l-.067-.067-.606-.54-1.146.54v.808c0 .067.068.067.202.067.068 0 .202 0 .405-.067l.067.202-1.347.606-.068-.202a.145.145 0 0 0 .135-.134c.067-.068.135-.068.135-.135.067-.067.067-.135.067-.202v-.27c0-.539-.067-1.01-.067-1.55 0-.538-.068-1.077-.068-1.75l.472-.203a37.592 37.592 0 0 1 1.55 1.482c.404.337.673.674.943.876.067.067.067.067.134.067.068 0 .135.068.202.068h.202c.068 0 .135 0 .135-.068l.202.337zm-2.29-.539l-1.01-1.01.067 1.415.943-.405zm6.4-2.358l-.135-.134c-.067 0-.067.067-.202.067-.067 0-.135.067-.202.067h-.202c-.068 0-.068-.067-.135-.134l-1.482-2.089c0-.067-.067-.067-.067-.134 0-.068 0-.135.067-.135l.135-.135.134-.135-.134-.134-3.57 2.492.134.135s.067-.067.135-.067c.067 0 .134-.068.202-.068h.202c.067 0 .067.068.135.135l1.482 2.088a.209.209 0 0 1 .067.135c0 .067 0 .135-.067.135l-.135.135c-.067.067-.135.067-.135.134l.135.135 1.617-1.145-.135-.135c-.067 0-.067.067-.202.067-.067 0-.135.068-.135.068h-.135c-.067 0-.067-.068-.134-.135l-1.617-2.29 1.212-.876 1.617 2.358a.209.209 0 0 1 .068.134c0 .068 0 .135-.068.135l-.134.135c-.068.067-.135.067-.135.135l.135.134 1.684-1.078zm1.886-2.088l-1.415 1.482-.134-.135c0-.067.067-.067.134-.134.068-.068.068-.135.135-.135v-.135c0-.067-.067-.067-.067-.135l-1.887-1.819c-.067-.067-.067-.067-.134-.067h-.135c-.067 0-.067.067-.135.067-.067.068-.135.068-.202.135l-.135-.135 1.415-1.482.135.135c0 .067-.068.067-.135.135-.067.067-.067.135-.135.135 0 .067-.067.134 0 .202 0 .067.068.067.068.134l1.886 1.82c.067.067.067.067.135.067h.202c.067 0 .067-.068.135-.068.067-.067.134-.067.134-.134l.135.067zm.472-4.85l-.876-.607-2.021 2.897.876.606.134-.134c-.067-.135-.202-.27-.27-.472-.066-.202-.066-.337-.066-.404 0-.068.067-.135.134-.202.068-.068.068-.135.135-.202l.067-.068 2.358 1.684.135.135v.202c0 .068-.067.068-.067.202-.068.068-.068.135-.135.202l.135.135 1.145-1.617-.135-.134-.135.134c-.067.068-.134.068-.134.135-.068.067-.135.067-.135.067-.067 0-.135 0-.135-.067l-2.358-1.684.068-.067c.067-.068.067-.135.134-.135.068-.068.068-.135.135-.135.068-.067.202-.135.404-.067.202 0 .405.067.54.067l.067-.472zm4.311-2.695l-.876 1.751-.202-.067c.068-.067.068-.202.135-.337v-.202h-.135l-.808-.067-.539 1.145a192552.505 192552.505 0 0 0 .539.539c.067 0 .067.067.067.067.068 0 .135 0 .202-.067.068-.068.135-.202.27-.337l.202.067-.674 1.348-.202-.068c0-.067.068-.134.068-.202v-.202c0-.067 0-.135-.068-.202 0-.067-.067-.135-.135-.202l-1.01-1.213c-.337-.404-.741-.808-1.145-1.28l.202-.471c.876.067 1.617.134 2.088.202.54.067.943.067 1.28.135h.135c.067 0 .135-.068.202-.068s.067-.067.135-.135c.067-.067.067-.067.067-.134h.202zm-2.156 1.078l-1.414-.135.943 1.078.471-.943zm-.538-3.638c-.068.067-.068.134-.135.202-.068.067-.068.135-.068.202l-.202-.067.876-3.167.202.068v.404c0 .067 0 .135.068.135.067.067.067.067.134.067l2.493.674h.135c.067 0 .067-.068.134-.068 0-.067.068-.067.068-.134.067-.068.067-.135.067-.203l.202.068-.539 1.886-.202-.067c0-.068 0-.135.068-.202v-.202c0-.068 0-.135-.068-.135-.067-.068-.067-.068-.135-.068l-2.762-.808-.27.808c.607.203 1.079.405 1.483.607.404.202.741.404.943.606.27.202.404.404.472.606.067.202.067.337.067.472 0 .135-.067.202-.135.27l-.134.134c-.068 0-.135.068-.202.068h-.135c-.135-.068-.27-.135-.337-.27a.43.43 0 0 1 0-.404c0-.068.067-.135.135-.27.067-.067.202-.134.27-.202l-.338-.337c-.134-.134-.27-.202-.471-.336-.202-.135-.404-.203-.607-.337-.202-.068-.404-.202-.673-.27-.135 0-.202-.067-.27-.067-.067.202-.134.27-.134.337z" fill="#DC0812"/></g><path d="M125.17 36.446c-.134-.067-.404-.134-.74-.202-.337-.067-.54-.067-.674-.135v-.673h11.385v.673c-.202 0-.404.068-.674.068-.27.067-.471.067-.673.135-.202.067-.405.202-.472.336a1.27 1.27 0 0 0-.135.54v9.027c0 .202.068.404.135.539.067.134.202.27.472.404.134.067.337.135.606.135.27.067.472.067.674.067v.674h-6.94v-.674c.135 0 .405 0 .674-.067.27 0 .472-.068.607-.135.202-.067.404-.202.471-.337a1.27 1.27 0 0 0 .135-.539V36.244h-3.032c-.067 2.156-.269 3.975-.673 5.524-.337 1.55-.741 2.763-1.28 3.773-.54 1.01-1.078 1.752-1.617 2.223-.539.404-1.078.674-1.617.674-.404 0-.74-.067-1.01-.135a2.378 2.378 0 0 1-.607-.404c-.134-.135-.27-.337-.27-.539-.067-.202-.067-.404-.067-.606 0-.54.203-1.01.54-1.28.336-.27.74-.472 1.212-.472.337 0 .606.135.943.337.337.202.606.472.876.808.202-.336.472-.808.741-1.414.27-.607.472-1.213.674-1.887a28.3 28.3 0 0 0 .539-2.29c.134-.741.202-1.617.202-2.493 0-.404-.068-.74-.135-.943.067-.337-.067-.539-.27-.674zm22.906.405c.606.606 1.145 1.28 1.482 2.088.337.808.539 1.752.539 2.762 0 .943-.135 1.819-.472 2.627-.337.809-.74 1.55-1.347 2.156-.606.607-1.347 1.145-2.156 1.482-.808.337-1.819.54-2.964.54-.943 0-1.82-.135-2.627-.472-.809-.337-1.55-.741-2.156-1.348a5.887 5.887 0 0 1-1.482-2.088 6.866 6.866 0 0 1-.54-2.695c0-1.01.203-1.954.54-2.83.336-.875.875-1.549 1.482-2.155a5.559 5.559 0 0 1 2.156-1.347c.875-.337 1.751-.472 2.694-.472.943 0 1.82.135 2.695.472.808.336 1.55.74 2.156 1.28zm-2.29 9.094a7.28 7.28 0 0 0 .606-1.819c.134-.673.202-1.482.202-2.358 0-.74-.068-1.482-.135-2.155-.135-.674-.27-1.348-.539-1.887-.27-.539-.606-1.01-1.01-1.28-.405-.337-.944-.471-1.55-.471-1.078 0-1.886.539-2.493 1.55-.539 1.01-.808 2.492-.808 4.378 0 .809.067 1.55.202 2.223.135.674.337 1.348.606 1.82.27.538.607.942 1.01 1.212.405.27.944.471 1.55.471.607 0 1.078-.134 1.55-.471.202-.27.539-.674.808-1.213zm23.04 2.223h-6.872v-.673c.202 0 .471-.068.74-.068.27-.067.472-.067.607-.134.202-.068.404-.202.472-.337.067-.135.134-.337.134-.607v-9.498l-4.379 11.183h-1.145a30.608 30.608 0 0 0-.404-1.146c-.202-.606-.404-1.077-.539-1.414l-3.234-8.758v7.747c0 .741.068 1.28.135 1.684.067.405.27.674.472.876.134.135.404.27.808.337.404.135.674.202.808.202v.674h-5.456v-.674c.134 0 .404-.067.74-.135.338-.067.607-.202.81-.336.269-.135.403-.472.47-.876.068-.404.135-.943.135-1.684v-6.266c0-.404-.067-.673-.134-.943-.068-.27-.27-.471-.405-.606a1.82 1.82 0 0 0-.74-.337c-.27-.067-.472-.067-.742-.135v-.673h5.861l3.1 8.353 2.627-6.804c.067-.27.202-.539.27-.876.067-.337.134-.606.134-.673h5.592v.673c-.203 0-.405.068-.607.068-.202.067-.404.067-.606.134-.202.068-.404.202-.472.337a1.27 1.27 0 0 0-.134.54v9.026c0 .203.067.405.134.54.068.134.202.269.472.404.135.067.337.134.606.134.27.068.472.068.607.068v.673h.134zm10.24-3.637c0-.944-.27-1.617-.81-2.089-.538-.471-1.28-.74-2.29-.74h-.875v4.85a.901.901 0 0 0 .471.539c.27.134.606.202 1.01.202.742 0 1.28-.27 1.752-.741.54-.472.741-1.146.741-2.021zm3.57-.203c0 .607-.135 1.213-.404 1.685-.27.471-.674.875-1.146 1.212-.471.337-1.01.54-1.55.674a7.343 7.343 0 0 1-1.75.202h-7.68v-.674c.201 0 .403-.067.673-.067s.472-.067.606-.135c.202-.067.337-.202.472-.337a1.27 1.27 0 0 0 .135-.539v-8.96a1.27 1.27 0 0 0-.135-.538c-.068-.135-.202-.27-.472-.405-.134-.067-.404-.134-.673-.202-.27-.067-.472-.067-.607-.135v-.673h11.386v3.638h-.674a7.909 7.909 0 0 0-1.01-1.82c-.405-.538-.742-.808-1.079-.875-.202-.067-.404-.067-.673-.067h-2.897v4.513h1.886c.809 0 1.55.068 2.156.202a6.706 6.706 0 0 1 1.752.607c.471.27.875.673 1.212 1.145.27.337.472.943.472 1.55zm14.956 3.84h-6.94v-.673c.337 0 .742-.068 1.146-.202.471-.068.674-.202.674-.337v-.135c0-.067 0-.135-.068-.27l-1.078-2.627h-4.379c-.067.27-.202.54-.336.876-.135.337-.203.606-.337.876-.135.337-.202.606-.202.74v.338c0 .202.134.337.404.471.27.135.808.202 1.482.27v.673h-5.187v-.673c.202 0 .404-.068.673-.068.27-.067.472-.134.607-.202a1.59 1.59 0 0 0 .606-.539c.202-.202.337-.471.404-.74.674-1.685 1.415-3.37 2.088-5.053.674-1.685 1.483-3.57 2.291-5.592h1.819c1.145 2.897 2.088 5.12 2.762 6.804.674 1.684 1.213 3.032 1.684 4.177.068.202.202.337.27.472.134.134.27.27.539.404.134.067.337.135.606.202.202.067.404.067.606.067v.741h-.134zm-6.603-5.12l-1.886-4.648-1.819 4.648h3.705zm18.662-4.379c0 .742-.135 1.348-.472 1.82-.27.538-.674.943-1.213 1.28a5.446 5.446 0 0 1-1.819.74c-.673.135-1.482.203-2.358.203h-1.01v3.57c0 .202.067.404.135.54.067.134.27.269.471.403.135.068.337.068.607.135.27.067.471.067.673.135v.673h-6.939v-.673c.202 0 .405-.068.674-.068.27 0 .472-.067.606-.134.202-.068.405-.202.472-.337a1.27 1.27 0 0 0 .135-.54v-8.96a1.27 1.27 0 0 0-.135-.538c-.067-.135-.202-.27-.472-.404-.134-.068-.404-.135-.673-.202-.27-.068-.472-.068-.607-.135v-.674h7.007c1.616 0 2.896.27 3.705.809.808.471 1.213 1.28 1.213 2.357zm-3.504.405c0-.943-.202-1.685-.606-2.156-.404-.472-1.078-.674-2.088-.674h-.674v5.592h.404c1.01 0 1.752-.202 2.223-.674.472-.404.741-1.145.741-2.088zm12.868 7.41V36.38h-3.301a22.564 22.564 0 0 1-.943 5.726c-.54 1.954-1.28 3.706-2.224 5.255h5.727c.27 0 .404-.067.539-.202.134-.202.202-.404.202-.674zm-4.38 1.617h-.808c-.27 0-.471.067-.74.067-.472.068-.944.472-1.483 1.146-.539.673-.876 1.28-1.078 2.02h-.673v-4.041h1.28c.808-1.213 1.55-2.762 2.223-4.649.673-1.886 1.01-3.503 1.01-4.85 0-.337 0-.607-.134-.809-.068-.202-.203-.337-.405-.471-.134-.068-.404-.135-.74-.202-.338-.068-.54-.068-.742-.135v-.674H224v.674c-.202 0-.404.067-.674.067-.27.068-.471.068-.673.135-.202.067-.405.202-.472.337a1.27 1.27 0 0 0-.135.539v9.094c0 .337.068.54.27.674.202.135.471.202.876.202H224v4.042h-.674a5.123 5.123 0 0 0-1.078-1.953c-.539-.674-1.01-1.01-1.482-1.146-.202-.067-.404-.067-.74-.067h-5.391z" fill="#FFF"/></g></svg>