<svg width="1305" height="650" viewBox="0 0 1305 650" xmlns="http://www.w3.org/2000/svg"><title>pattern</title><g fill="none" opacity=".041"><path d="M666 468.26c-4.075-5.27-6.03-12.185-5.053-18.607-2.77-1.812-5.541-3.458-8.475-5.105C601.295 415.732 538.545 411.78 488.835 380c-4.075 4.446-10.105 6.093-15.81 4.117-7.008 14.82-14.017 29.804-21.025 44.623 4.075 5.434 6.03 12.185 5.053 18.607 52.48 33.592 119.63 36.062 172.112 69.653 4.075-4.446 10.105-6.093 15.81-4.117 2.445-5.269 5.052-10.703 7.497-15.972v-.165c4.564-9.55 9.127-18.936 13.528-28.486zm-166.408-40.343c-2.445 4.94-8.312 7.245-13.365 4.775-4.89-2.47-6.845-8.727-4.564-13.831 2.445-5.105 8.15-6.916 13.202-4.446 4.89 2.634 7.172 8.397 4.727 13.502zm88.338 29.64c-7.008 14.984-25.752 23.052-41.724 18.277-15.973-4.775-23.144-21.241-15.973-36.226 7.008-14.984 25.752-23.053 41.724-18.277 15.973 4.775 22.981 21.076 15.973 36.225zm48.407 20.582c-2.445 5.105-8.15 6.916-13.202 4.446-4.89-2.47-7.172-8.397-4.727-13.337 2.445-4.94 8.312-7.246 13.365-4.776 4.89 2.306 6.845 8.563 4.564 13.667z" fill="#FFF"/><path d="M183-3.52c-.327-.493-.817-.987-1.144-1.48h-32.188c.49 1.316 1.144 2.467 1.96 3.618C92.318 30.688 54.9 92.524 0 130.678V144C66.174 101.57 105.879 23.945 183-3.52z" fill="#EC2227"/><path d="M4.243-5C2.829-3.5 1.414-2 0-.333V7C3.771 3 7.386-1 11-5H4.243zM142-3.854c-.162-.328-.162-.819-.325-1.146H43.38C49.879-3.527 56.215.4 60.764 6.62c11.21 15.057 9.424 38.133-3.899 52.044-13.16 13.747-33.307 12.274-44.68-2.783-11.21-15.056-9.423-38.132 3.9-52.043C20.634-.91 25.833-3.691 31.357-5H13.485C8.935-.418 4.55 4.165 0 8.911V122C51.016 84.85 87.085 27.896 142-3.854z" fill="#FFF"/><path d="M151-1.4c-.814-1.145-1.466-2.455-1.955-3.6h-5.538c.163.49.163.818.326 1.31 0 .163.163.326.163.49C88.124 28.71 51.799 86.636 0 123.782V130C54.569 92.036 91.87 30.673 151-1.4z" fill="#FFF"/><path d="M11.807-5C7.927-1.047 3.88 2.906 0 6.859V9C4.723 4.388 9.277-.224 14-5h-2.193zM144-3.197c0-.164-.163-.328-.163-.492-.163-.328-.163-.82-.326-1.311h-1.629c.163.328.163.82.326 1.147C87.312 27.947 50.986 85.152 0 122.197V124C51.8 86.628 88.127 28.602 144-3.197zM12.33 54.67c11.164 15.167 31.228 16.635 44.496 2.772 13.106-13.7 15.048-36.695 3.883-51.863C56.017-.618 49.87-4.532 43.396-6H31.584c-5.501 1.142-10.679 4.077-15.21 8.807C2.945 16.67 1.165 39.665 12.33 54.669zM273.465 83c-30.767 25.145-61.698 50.453-92.465 75.597C216.651 247.91 318.884 282.687 354.535 372c30.767-25.145 61.698-50.453 92.465-75.597C411.186 207.09 308.953 172.313 273.465 83zM421.93 302.607c-17.256 14.205-34.511 28.247-51.93 42.452-3.744-7.837-12.698-9.47-19.21-4.082-38.092-64.657-111.51-100.415-149.604-165.072 6.512-5.389 8.302-15.512 4.558-23.35 17.256-14.204 34.512-28.246 51.93-42.451 3.745 7.837 12.698 9.47 19.21 4.082 38.093 64.658 111.511 100.415 149.604 165.073-6.511 5.225-8.302 15.511-4.558 23.348z" fill="#EC2227"/><path d="M276.932 115.083c-6.532 5.389-15.513 3.756-19.269-4.083-17.309 14.208-34.618 28.252-52.09 42.46 3.755 7.839 2.122 18.127-4.573 23.353 38.211 64.67 111.857 100.434 150.068 165.104 6.532-5.389 15.513-3.756 19.269 4.083 17.309-14.208 34.618-28.252 52.09-42.46-3.755-7.839-2.122-18.127 4.573-23.353-38.211-64.67-111.857-100.434-150.068-165.104zm143.373 164.94c-4.082 5.88-5.389 13.882-3.756 21.067 0 .164.163.327.163.654l-45.069 36.744c-.163-.163-.163-.327-.327-.327-4.735-4.899-11.593-6.042-17.799-3.43-.163 0-.326.164-.49.164-38.047-60.914-107.284-96.352-145.332-157.265.163-.164.163-.327.327-.49 4.082-5.88 5.388-13.881 3.755-21.067 0-.163-.163-.327-.163-.653l45.07-36.745c.163.164.163.327.326.327 4.572 4.9 11.594 6.042 17.8 3.43.163 0 .326-.164.49-.164 38.047 60.914 107.284 96.352 145.332 157.266-.164.163-.164.326-.327.49z" fill="#FFF"/><path d="M275.272 123.431c-6.348 2.451-13.348 1.307-18.23-3.431-14.487 11.764-28.811 23.528-43.298 35.455 1.627 7.516.325 15.522-3.744 21.568 37.926 60.127 105.965 95.419 143.728 155.546 6.348-2.451 13.348-1.307 18.23 3.431 14.487-11.764 28.811-23.528 43.298-35.455-1.627-7.516-.325-15.522 3.744-21.568-37.763-60.127-105.802-95.419-143.728-155.546zm-12.045 54.409c-4.884 3.921-12.208 3.43-16.115-1.634-3.906-4.902-2.93-12.418 1.953-16.34 4.884-3.92 11.72-3.104 15.627 1.962 4.069 4.901 3.418 12.09-1.465 16.012zm76.666 73.525c-14.487 11.927-37.6 10.947-51.762-1.798-14.161-12.744-13.673-33.004.976-44.932 14.487-11.927 37.6-10.947 51.762 1.798 14.324 12.744 13.673 33.004-.976 44.932zm40.042 44.605c-4.884 3.921-11.72 3.104-15.627-1.96a11.57 11.57 0 0 1 1.465-16.013c4.884-3.921 12.208-3.431 16.115 1.634 3.906 5.065 2.93 12.417-1.953 16.339z" fill="#FFF"/><path d="M275.624 121.596c-.163 0-.326.163-.49.163-6.207 2.615-13.23 1.308-17.804-3.432-.164-.164-.164-.327-.327-.327l-45.083 36.776c0 .163.164.327.164.653 1.633 7.356.326 15.201-3.757 21.085-.164.164-.164.327-.327.49 38.059 60.966 107.317 96.434 145.376 157.4.163 0 .326-.163.49-.163 6.207-2.615 13.23-1.308 17.804 3.432.164.164.164.327.327.327l45.083-36.776c0-.163-.164-.327-.164-.653-1.633-7.356-.326-15.201 3.757-21.085.164-.164.164-.327.327-.49-38.059-60.966-107.317-96.434-145.376-157.4zM415.446 300.57c-14.537 11.768-28.911 23.536-43.45 35.468-4.9-4.74-11.923-5.884-18.294-3.433-37.895-60.148-106.336-95.453-144.232-155.602 4.084-6.047 5.39-14.056 3.757-21.575 14.538-11.768 28.912-23.536 43.45-35.468 4.9 4.74 11.923 5.884 18.294 3.433 38.059 60.148 106.337 95.453 144.232 155.602-4.083 6.047-5.227 14.22-3.757 21.575z" fill="#EC2227"/><path d="M340.545 207.057c-14.256-12.67-37.524-13.483-52.107-1.787-14.748 11.859-15.403 32.002-.983 44.673 14.256 12.67 37.524 13.483 52.107 1.787 14.748-11.859 15.403-32.002.983-44.673zm24.597 71.543c-4.97 3.924-5.468 11.115-1.49 16.018 3.976 4.904 10.935 5.884 15.906 1.962 4.97-3.923 5.965-11.441 1.988-16.345-3.976-5.066-11.433-5.557-16.404-1.634zM248.437 160.426c-4.965 3.932-5.958 11.467-1.986 16.382 3.971 4.914 11.418 5.57 16.383 1.638 4.965-3.932 5.461-11.14 1.655-16.054-4.137-4.915-11.253-5.898-16.052-1.966zM406-5h-12.52c-11.545 8.068-23.09 15.972-34.472 24.04-1.951-5.269-7.642-6.75-12.195-3.622-3.415-7.245-7.48-13.832-12.033-20.253H326C335.106 7.349 342.748 20.687 347.463 36 366.976 22.169 386.488 8.667 406-5z" fill="#EC2227"/><path d="M358.448 18C370.019 10 381.59 2.163 393-5.837h-5.867c-9.29 6.368-18.418 12.735-27.708 18.939 0-.163-.163-.163-.163-.326-2.77-3.43-7.17-4.572-11.408-3.266-.163 0-.163 0-.326.163-2.771-5.387-6.03-10.612-9.453-15.673H334c4.564 6.367 8.638 13.061 12.06 20.082 4.727-2.94 10.269-1.306 12.388 3.918z" fill="#FFF"/><path d="M360.318 13C368.933 7 377.385 1 386-5h-46c3.088 4.667 6.177 9.667 8.777 14.833 4.227-1.333 8.615-.166 11.541 3.167z" fill="#FFF"/><path d="M348.637 10.427c4.083-1.299 8.656-.162 11.433 3.248 0 .163.163.163.163.325C369.543 7.667 378.69 1.333 388-4.838h-1.633c-8.657 5.847-17.15 11.693-25.807 17.539-2.94-3.248-7.35-4.385-11.597-3.248C346.35 4.419 343.41-.291 340.143-5H339c3.43 5.034 6.697 10.068 9.473 15.59-.163 0 0-.163.164-.163zM121.921 318c3.414-28.62 6.665-57.076 10.079-85.695C89.897 213.442 44.542 222.06.163 221.41v7.805c37.714.326 76.078-5.691 112.492 4.39-.65 6.017 3.577 12.196 9.429 14.31-1.951 15.936-3.74 32.034-5.69 47.97-5.852-2.114-11.217 1.464-12.03 7.48-33.812-9.269-69.25-4.716-104.364-4.39v7.805c41.29-.163 83.069-6.18 121.921 11.22z" fill="#EC2227"/><path d="M104.293 304c.65-6.055 6.173-9.82 12.021-7.528 1.95-16.038 3.737-32.24 5.686-48.277-5.848-2.128-10.072-8.346-9.422-14.401-36.551-9.983-74.89-3.928-112.416-4.419v3.764c36.39.327 73.428-5.237 108.842 3.6v.328c.812 5.236 4.061 9.982 8.61 12.928.162 0 .162.164.325.164-1.625 13.91-3.25 27.984-4.874 41.894h-.325c-4.873-.163-9.097 2.783-11.046 7.201 0 .164-.163.164-.163.327-32.977-8.182-67.579-3.927-101.531-3.6v3.6c35.09-.49 70.503-4.91 104.293 4.419z" fill="#FFF"/><path d="M101.053 298c2.115-4.382 6.346-7.303 11.228-7.303 1.627-13.309 3.092-26.617 4.719-39.926-4.556-3.083-7.974-7.79-8.787-12.983-35.149-8.44-72.088-3.084-108.213-3.409v60.375c33.847-.325 68.02-4.707 101.053 3.246zM80.06 263.917c.488-4.544 4.557-7.79 9.113-7.303 4.556.65 7.648 4.869 7.16 9.413-.488 4.545-4.557 7.466-9.113 6.817-4.556-.487-7.81-4.382-7.16-8.927zm-54.676 24.345c-13.831.487-23.595-10.225-21.968-23.695 1.628-13.471 13.995-24.507 27.826-25.156 13.832-.65 23.596 10.224 21.968 23.695-1.627 13.47-14.157 24.507-27.826 25.156z" fill="#FFF"/><path d="M101.561 300c0-.164.163-.164.163-.328 1.953-4.427 6.185-7.378 11.068-7.214h.325c1.628-13.937 3.255-28.037 4.883-41.973-.163 0-.163-.164-.326-.164-4.557-2.952-7.812-7.706-8.626-12.953v-.328c-35.481-8.854-72.59-3.28-109.048-3.607v.984c36.132.328 73.079-5.247 108.234 3.443.977 5.246 4.232 10.001 8.79 13.116-1.628 13.445-3.093 26.89-4.72 40.334-4.883 0-9.115 2.951-11.23 7.378-32.878-8.034-67.22-3.77-101.074-3.443v.984c34.017-.164 68.521-4.427 101.561 3.771z" fill="#EC2227"/><path d="M31.92 239.016c-13.792.65-26.123 11.713-27.746 25.216-1.622 13.503 8.275 24.24 21.904 23.752 13.792-.65 26.123-11.713 27.745-25.216 1.623-13.503-8.112-24.24-21.904-23.752zm56.144 33.9c4.443.633 8.41-2.376 8.887-6.652.476-4.435-2.54-8.553-6.983-9.186-4.444-.634-8.411 2.692-8.887 7.127-.635 4.276 2.539 8.077 6.983 8.71zM120 476.917c19.748 7.36 39.659 14.722 59.407 22.083 31.172-40.404 19.42-96.512 50.593-136.917-19.748-7.36-39.659-14.722-59.407-22.083-31.008 40.404-19.42 96.676-50.593 136.917zm60.223-127.102c11.097 4.09 22.195 8.179 33.293 12.432-2.611 3.762-.816 8.343 3.264 9.815-19.258 34.842-15.83 78.191-34.925 113.034-4.244-1.636-9.303.49-11.914 4.253-11.098-4.09-22.196-8.18-33.294-12.432 2.611-3.763.816-8.343-3.264-9.815 19.258-34.843 15.83-78.192 34.926-113.034 4.243 1.472 9.302-.49 11.914-4.253z" fill="#EC2227"/><path d="M141.26 475.657c9.29 3.447 18.418 6.895 27.71 10.343 2.933-2.791 7.008-4.269 10.92-4.104 17.114-33.657 14.995-74.538 32.11-108.195-2.77-2.298-4.238-5.91-3.26-9.358-9.29-3.447-18.418-6.895-27.71-10.343-2.933 2.791-7.008 4.269-10.92 4.104-17.114 33.657-14.995 74.538-32.11 108.195 2.77 2.298 4.075 5.91 3.26 9.358zm28.198-10.672c-1.14 3.12-4.89 4.597-7.987 3.448-3.097-1.15-4.564-4.597-3.423-7.717 1.141-3.119 4.564-4.76 7.661-3.612 3.26 1.314 4.89 4.762 3.75 7.881zm10.92-89.806c1.142-3.12 4.89-4.597 7.988-3.448 3.097 1.15 4.564 4.597 3.423 7.717-1.141 3.12-4.564 4.761-7.661 3.612-3.26-1.314-5.053-4.761-3.75-7.88zm-22.493 38.582c1.956-10.015 11.41-15.104 20.7-11.657 9.292 3.448 15.16 14.284 13.204 24.299-1.956 10.015-11.41 15.104-20.7 11.657-9.292-3.448-15.16-14.284-13.204-24.299z" fill="#FFF"/><path d="M133 467.679c4.223 1.641 5.847 6.072 3.249 9.847 11.045 4.104 22.09 8.207 33.135 12.474 2.598-3.775 7.634-5.744 11.857-4.267 19.166-34.96 15.755-78.453 34.759-113.412-4.223-1.477-5.847-6.072-3.249-9.847-11.045-4.104-22.09-8.207-33.135-12.474-2.598 3.775-7.634 5.744-11.857 4.267-19.166 34.96-15.755 78.453-34.759 113.412zm36.384-110.293c3.735.328 7.796-1.313 10.557-3.94l.163-.163 28.75 10.832v.328c-.975 3.447.324 6.893 3.248 9.191l.162.164c-17.542 33.81-15.105 75.17-32.485 109.145h-.325c-3.736-.329-7.796 1.313-10.558 3.939l-.162.164-28.75-10.833v-.328c.975-3.447-.325-7.057-3.248-9.191l-.163-.164c17.542-33.81 15.106-75.17 32.486-109.144h.325z" fill="#FFF"/><path d="M137.163 466.612c2.773 2.138 4.24 5.755 3.262 9.208v.328L169.292 487l.163-.164c2.936-2.796 6.85-4.275 10.6-3.946h.327c17.614-33.87 15.167-75.303 32.618-109.338l-.163-.164c-2.773-2.138-4.24-5.755-3.262-9.208v-.328L180.708 353l-.163.164c-2.936 2.796-6.85 4.275-10.6 3.946h-.327c-17.614 33.87-15.167 75.303-32.618 109.338.163 0 .163 0 .163.164zm32.944-108.844c3.914.165 7.829-1.315 10.927-4.11 9.296 3.452 18.43 6.905 27.726 10.358-.816 3.453.489 7.07 3.261 9.372-17.124 33.705-15.004 74.645-32.128 108.35-3.914-.164-7.829 1.316-10.927 4.111-9.296-3.453-18.43-6.905-27.726-10.358.816-3.453-.489-7.07-3.261-9.372 17.287-33.706 15.004-74.645 32.128-108.35z" fill="#EC2227"/><path d="M170.71 436.927c9.382 3.438 18.928-1.637 20.903-11.624 1.975-9.987-3.785-20.792-13.331-24.23-9.382-3.438-18.927 1.637-20.903 11.624-1.975 9.987 3.95 20.792 13.332 24.23zm13.33-54.292c3.056 1.142 6.434-.489 7.56-3.587 1.125-3.097-.161-6.521-3.378-7.663-3.056-1.14-6.594.326-7.88 3.424-1.127 3.261.643 6.685 3.698 7.826zM166 456.365c-3.07-1.142-6.466.489-7.598 3.587-1.131 3.097.162 6.521 3.395 7.663 3.072 1.14 6.629-.326 7.922-3.424.97-3.098-.646-6.522-3.718-7.826zM0 426v10.924c5.264 2.772 10.2 5.706 15.134 9.13-3.29 6.685-.658 15.49 5.264 20.218C13.654 480.457 6.745 494.642 0 508.826V531c12.667-26.413 25.333-52.663 38-79.076C26.32 441.163 13.49 432.848 0 426z" fill="#EC2227"/><path d="M8.771 449.07C5.904 447.27 3.036 445.634 0 444v52c4.723-9.484 9.277-18.969 14-28.453-4.048-5.233-6.072-12.1-5.229-18.478z" fill="#FFF"/><path d="M15 446.143C10.161 442.878 5.161 439.776.161 437v5.061c3.226 1.796 6.613 3.755 9.678 5.878 0 .163 0 .326-.162.49-1.129 6.204.807 13.06 4.84 18.122.16.163.16.327.322.49C9.839 477.49 5 487.939 0 498.55V509c6.613-14.204 13.387-28.408 20-42.612-5.645-4.735-8.226-13.551-5-20.245z" fill="#FFF"/><path d="M14.51 466.348c-4.075-5.032-6.032-11.85-4.89-18.018 0-.162 0-.324.163-.487A155.332 155.332 0 0 0 0 442v1.46c2.935 1.624 5.707 3.247 8.478 5.033-.978 6.33.979 13.148 5.055 18.342C8.967 476.249 4.565 485.664 0 495.078V498c5.054-10.388 9.946-20.777 15-31.328-.163 0-.326-.162-.49-.324zm604.536-195.43c4.453.667 8.43-2.832 8.907-7.498.477-4.666-2.704-8.665-6.999-9.331-4.453-.667-8.43 2.5-8.907 6.998-.477 4.832 2.704 9.332 6.999 9.831zm-73.351 203.716c15.9 4.754 34.558-3.28 41.535-18.199 7.139-15.083 0-31.314-15.9-36.069-15.9-4.754-34.558 3.28-41.535 18.199-7.139 14.92-.162 31.314 15.9 36.069zm76.988 6.292c4.922 2.425 10.83.647 13.29-4.365 2.462-4.85.329-11.155-4.594-13.58-4.922-2.425-10.994-.162-13.455 4.688-2.297 5.174-.164 10.832 4.759 13.257zM481.023 418.4c-2.453 4.863-.327 11.185 4.578 13.617 4.905 2.431 10.955.162 13.407-4.702 2.453-5.025.164-10.7-4.741-13.13-4.905-2.595-10.791-.811-13.244 4.214zM309.976 498c-21.38 14.724-42.596 29.447-63.976 44.008 13.71 44.498 52.878 71.491 79.644 106.992h8.813c-23.338-32.883-58.264-57.913-76.217-94.723 4.57-3.108 6.202-9.652 4.08-14.887 11.914-8.18 23.992-16.523 35.906-24.703 1.958 5.235 7.67 6.707 12.24 3.599 21.216 43.844 66.914 71.001 88.294 115.009-4.57 3.108-6.202 9.652-4.08 14.887-.327.327-.816.49-1.306.818h12.567c1.632-1.145 3.427-2.29 5.059-3.436-18.279-59.876-82.745-87.851-101.024-147.564z" fill="#EC2227"/><path d="M394 632.381c-21.394-41.135-63.693-67.79-84.925-109.09-4.246 1.316-8.819.164-11.595-3.291l-29.887 20.732c.653 4.936-.653 10.037-3.593 13.822 18.781 36.034 53.568 61.044 76.269 94.446h46.218a60.164 60.164 0 0 1 4.083-2.797c-.816-4.936.327-10.037 3.43-13.822zm-95.867-74.208c-3.43 2.304-8.002 1.481-10.289-1.81-2.286-3.455-1.306-8.227 2.123-10.53 3.43-2.304 7.84-1.316 10.126 2.139 2.286 3.29 1.47 7.898-1.96 10.201zm45.892 51.995c-10.126 6.911-24.987 5.101-33.48-3.949-8.492-9.05-7.022-22.213 3.103-29.288 10.126-6.91 24.988-5.1 33.48 3.95 8.493 9.049 7.023 22.212-3.103 29.287zm23.518 31.263c-3.43 2.304-7.84 1.316-10.126-2.139-2.286-3.455-1.47-8.062 1.797-10.366 3.43-2.304 8.002-1.48 10.289 1.81 2.45 3.62 1.47 8.392-1.96 10.695z" fill="#FFF"/><path d="M398 633.214c-21.138-44.068-66.667-71.364-87.967-115.596-4.553 3.124-10.082 1.644-12.196-3.618-11.87 8.222-23.902 16.608-35.772 24.83 1.951 5.261.325 11.839-4.065 14.963 17.724 36.997 52.52 62.156 75.935 95.207H338c-22.764-33.216-57.398-58.21-75.935-94.55 0-.164.163-.164.163-.328 2.926-3.618 4.227-8.715 3.577-13.484v-.329c10.406-7.235 20.65-14.305 31.057-21.54 0 .164.162.164.162.328 2.765 3.454 7.155 4.605 11.383 3.29.162 0 .162 0 .325-.165 21.3 41.766 64.065 68.568 85.366 110.17 0 .165-.163.165-.163.33-2.927 3.617-4.228 8.714-3.577 13.483v.328c-1.138.823-2.277 1.645-3.415 2.303h5.854c.488-.33.813-.494 1.3-.823-2.276-5.097-.65-11.51 3.903-14.799z" fill="#FFF"/><path d="M390.261 646.21c-.65-4.76.65-10.013 3.576-13.46 0-.164.163-.164.163-.328-21.296-41.692-64.05-68.447-85.345-109.975-.162 0-.162 0-.325.164-4.064 1.313-8.616.164-11.38-3.283 0-.164-.162-.164-.162-.328-10.404 7.222-20.645 14.28-31.05 21.503v.328c.651 4.76-.65 10.012-3.575 13.46 0 .164-.163.164-.163.328 18.532 36.11 53.158 61.06 75.916 94.381h1.138c-22.596-33.32-57.221-58.27-75.916-94.217 2.926-3.775 4.227-8.864 3.576-13.788l29.75-20.682c2.925 3.283 7.314 4.432 11.54 3.283 21.296 41.035 63.4 67.626 84.533 108.826-2.926 3.775-4.227 8.863-3.576 13.788a59.88 59.88 0 0 1-4.064 2.79h1.625c1.138-.82 2.276-1.641 3.414-2.298.325-.164.325-.328.325-.492z" fill="#EC2227"/><path d="M313.701 578.245c-10.2 6.945-11.68 19.867-3.125 28.751 8.554 8.884 23.688 10.66 33.723 3.877 10.2-6.946 11.68-19.868 3.125-28.752-8.554-9.045-23.524-10.822-33.723-3.876zm-23.264-30.991c-3.507 2.3-4.51 7.065-2.171 10.515 2.338 3.451 7.182 4.273 10.523 1.808 3.507-2.3 4.175-6.901 1.837-10.352-2.171-3.286-6.681-4.272-10.189-1.971zm68.739 82.146c-3.469 2.278-4.13 6.834-1.817 10.251 2.313 3.417 6.773 4.394 10.241 2.116 3.47-2.278 4.46-6.997 2.148-10.415-2.313-3.58-7.103-4.393-10.572-1.952zM620.797 77.348c-5.086 3.793-6.398 10.719-2.625 15.83 3.774 5.112 11.157 6.432 16.244 2.639 5.086-3.793 6.07-11.048 2.297-16.16-3.774-5.277-10.83-6.102-15.916-2.309zM0 637.96V649h4.39c27.159-27.762 53.992-55.848 88.143-74.193 5.041 6.818 15.124 8.766 23.092 5.357 13.335 17.858 26.67 35.554 40.168 53.413-6.667 2.76-8.944 9.416-6.83 15.26H181c-23.418-31.333-46.998-62.504-70.416-93.837C64.887 571.235 32.524 604.679 0 637.96z" fill="#EC2227"/><path d="M157 633.617c-13.388-17.812-26.776-35.462-40.327-53.273-8 3.4-18.122 1.295-23.183-5.344C59.204 593.298 32.265 621.31 5 649h7.02c24.817-25.26 49.633-50.359 80.49-67.685.163.162.327.162.49.324 5.714 4.372 13.551 5.991 20.898 4.696.163 0 .326 0 .653-.162 11.592 15.383 23.184 30.766 34.939 46.149-.163.162-.327.162-.327.324-4.734 4.21-6.204 10.363-4.571 16.354h5.55c-2.285-6.153.164-12.63 6.858-15.383z" fill="#FFF"/><path d="M147 632.015c-11.233-14.72-22.302-29.603-33.535-44.324-7.488 1.294-15.465-.323-21.325-4.691-29.791 16.985-54.047 41.412-78.14 66h17.907a29.404 29.404 0 0 1 11.884 0h98.65c-1.627-6.147-.162-12.618 4.559-16.985zm-42 6.147c-5.047 3.72-12.047 2.75-15.79-2.265-3.745-5.015-2.93-12.294 2.278-15.853 5.047-3.72 12.372-2.426 16.117 2.588 3.744 5.015 2.442 11.81-2.605 15.53z" fill="#FFF"/><path d="M148.675 632.57c.162-.163.325-.163.325-.326-11.552-15.455-23.105-30.91-34.82-46.364-.162 0-.325 0-.65.163-7.322 1.301-15.132-.325-20.827-4.718-.163-.162-.325-.162-.488-.325-30.59 17.407-55.483 42.622-80.215 68h1.952c24.081-24.727 48.325-49.13 78.1-66.373 5.858 4.392 13.83 5.856 21.315 4.717 11.227 14.804 22.291 29.77 33.518 44.575-4.719 4.392-6.183 10.9-4.556 17.081h1.627c-1.627-6.02 0-12.364 4.719-16.43z" fill="#EC2227"/><path d="M32 649.75h12c-3.78-1-7.89-1-12 0zm59.584-29.555c-5.086 3.812-6.07 11.106-2.297 16.244 3.774 5.139 10.83 5.968 15.916 2.321 5.086-3.812 6.398-10.775 2.625-15.913-3.774-5.139-11.157-6.465-16.244-2.652zM833.857-5h-32.154c.49 1.31 1.143 2.456 1.959 3.602-59.249 31.926-96.626 93.487-151.468 131.472-6.202 4.42-12.731 8.35-19.423 12.115-5.06-6.876-15.18-8.841-23.177-5.403-13.384-18.01-26.768-35.856-40.316-53.865 7.998-3.439 9.957-12.28 4.897-19.156 30.032-16.21 54.352-39.95 78.182-64.344L656.764-5h-15.179C612.858 24.143 582.989 51.813 543 65.893c23.993 32.09 47.823 64.017 71.817 96.107 13.547-4.748 25.952-11.133 37.703-18.665C718.298 101.095 758.124 23.815 835-3.526c-.326-.492-.816-.983-1.143-1.474z" fill="#EC2227"/><path d="M794.674-5h-98.701c6.525 1.472 12.888 5.396 17.456 11.61 11.257 15.045 9.462 38.103-3.915 52.003-13.215 13.736-33.445 12.265-44.864-2.78-11.257-15.045-9.463-38.102 3.915-52.002C673.133-.912 678.353-3.692 683.9-5h-17.945c-4.568 4.579-8.973 9.158-13.541 13.9-21.209 21.586-43.07 42.354-69.172 57.399 2.12 6.541.652 13.573-4.242 18.152 11.257 14.88 22.35 29.925 33.607 44.807 7.505-1.309 15.499.327 21.372 4.742 6.362-3.761 12.562-7.85 18.598-12.101C703.64 84.778 740.021 27.869 795-3.855c-.163-.49-.326-.818-.326-1.145zM634.794 96.552c-5.057 3.76-12.398 2.453-16.15-2.617-3.753-5.07-2.61-11.937 2.61-15.699 5.057-3.76 12.072-2.78 15.825 2.29 3.589 5.07 2.773 12.428-2.284 16.026z" fill="#FFF"/><path d="M801.882-5h-5.54c.162.493.162.822.325 1.316 0 .164.163.328.163.493-55.893 32.067-92.231 90.28-144.05 127.609-6.03 4.275-12.222 8.386-18.577 12.004-.163-.164-.326-.164-.489-.329-5.703-4.44-13.525-6.084-20.857-4.769-.163 0-.326 0-.652.165-11.57-15.622-23.14-31.245-34.872-46.867.163-.164.326-.164.326-.329 5.051-4.44 6.518-11.51 4.237-17.76 0-.164-.163-.329-.163-.493 26.887-15.458 49.211-36.836 71.047-59.2 3.748-3.947 7.659-7.893 11.407-11.676h-7.007c-1.467 1.48-2.933 2.96-4.4 4.605-23.791 24.502-48.071 48.182-77.891 64.462 5.051 6.742 3.096 15.787-4.889 19.24 13.362 18.089 26.724 36.013 40.25 54.102 7.984-3.453 18.087-1.315 23.139 5.427 6.844-3.618 13.199-7.729 19.554-12.169C707.532 92.68 744.848 30.85 804-1.218c-1.14-1.315-1.792-2.466-2.118-3.782z" fill="#FFF"/><path d="M796.673-4.69c-.163-.327-.163-.819-.326-1.31h-1.634c.164.328.164.819.327 1.146C740 26.916 703.578 84.07 652.457 121.08c-6.043 4.258-12.087 8.352-18.62 12.119-5.88-4.422-13.882-5.896-21.395-4.75-11.27-14.902-22.376-29.968-33.645-44.87 4.9-4.75 6.37-11.792 4.246-18.178 26.132-15.067 48.018-35.864 69.414-57.481 4.573-4.586 8.982-9.17 13.392-13.756h-1.96c-3.756 3.93-7.676 7.86-11.432 11.79-21.723 22.109-44.262 43.562-71.047 58.955 0 .164.163.328.163.492 2.287 6.386.817 13.265-4.246 17.686-.164.164-.327.164-.327.328 11.596 15.557 23.192 31.115 34.952 46.672.163 0 .326 0 .653-.164 7.35-1.31 15.19.328 20.906 4.75.163.163.326.163.49.327 6.533-3.767 12.74-7.697 18.619-12.118C704.558 85.544 741.143 27.735 797-4.198c-.163-.164-.163-.328-.327-.492z" fill="#EC2227"/><path d="M664.283 54.67c11.174 15.167 31.255 16.635 44.534 2.772 13.117-13.7 15.06-36.695 3.886-51.863C708.007-.618 701.853-4.532 695.376-6h-11.822c-5.506 1.142-10.688 4.077-15.223 8.807-13.279 13.863-15.222 36.858-4.048 51.862zM925.465 83c-30.767 25.145-61.698 50.453-92.465 75.597C868.651 247.91 970.884 282.687 1006.535 372c30.767-25.145 61.698-50.453 92.465-75.597C1063.349 207.09 961.116 172.313 925.465 83zm148.628 219.607c-17.256 14.205-34.512 28.247-51.93 42.452-3.744-7.837-12.698-9.47-19.21-4.082C964.86 276.32 891.442 240.562 853.35 175.905c6.511-5.389 8.302-15.512 4.558-23.35 17.256-14.204 34.512-28.246 51.93-42.451 3.744 7.837 12.698 9.47 19.21 4.082 38.093 64.658 111.511 100.415 149.604 165.073-6.674 5.225-8.302 15.511-4.558 23.348z" fill="#EC2227"/><path d="M928.932 115.083c-6.532 5.389-15.513 3.756-19.269-4.083-17.309 14.208-34.618 28.252-52.09 42.46 3.755 7.839 2.122 18.127-4.573 23.353 38.211 64.67 111.857 100.434 150.068 165.104 6.532-5.389 15.513-3.756 19.269 4.083 17.309-14.208 34.618-28.252 52.09-42.46-3.755-7.839-2.122-18.127 4.573-23.353-38.211-64.67-111.857-100.434-150.068-165.104zm143.536 164.94c-4.082 5.88-5.389 13.882-3.756 21.067 0 .164.164.327.164.654l-45.07 36.744c-.163-.163-.163-.327-.326-.327-4.736-4.899-11.594-6.042-17.8-3.43-.163 0-.326.164-.49.164-38.047-60.914-107.284-96.352-145.332-157.265.164-.164.164-.327.327-.49 4.082-5.88 5.389-13.881 3.756-21.067 0-.163-.164-.327-.164-.653l45.07-36.745c.163.164.163.327.326.327 4.573 4.9 11.594 6.042 17.8 3.43.163 0 .326-.164.49-.164 38.047 60.914 107.284 96.352 145.332 157.266-.164.163-.327.326-.327.49z" fill="#FFF"/><path d="M926.272 123.431c-6.348 2.451-13.348 1.307-18.23-3.431-14.487 11.764-28.811 23.528-43.298 35.455 1.627 7.516.325 15.522-3.744 21.568 37.926 60.127 105.965 95.419 143.728 155.546 6.348-2.451 13.348-1.307 18.23 3.431 14.487-11.764 28.811-23.528 43.298-35.455-1.628-7.516-.325-15.522 3.744-21.568-37.763-60.127-105.965-95.419-143.728-155.546zm-12.045 54.409c-4.884 3.921-12.208 3.43-16.115-1.634-3.906-4.902-2.93-12.418 1.953-16.34 4.884-3.92 11.72-3.104 15.627 1.962 3.906 4.901 3.418 12.09-1.465 16.012zm76.666 73.525c-14.487 11.927-37.6 10.947-51.762-1.798-14.161-12.744-13.673-33.004.976-44.932 14.487-11.927 37.6-10.947 51.762 1.798 14.161 12.744 13.673 33.004-.976 44.932zm39.879 44.605c-4.883 3.921-11.72 3.104-15.626-1.96a11.57 11.57 0 0 1 1.465-16.013c4.883-3.921 12.208-3.431 16.114 1.634 3.907 5.065 2.93 12.417-1.953 16.339z" fill="#FFF"/><path d="M927.624 121.596c-.163 0-.326.163-.49.163-6.207 2.615-13.23 1.308-17.804-3.432-.164-.164-.164-.327-.327-.327l-45.083 36.776c0 .163.164.327.164.653 1.633 7.356.326 15.201-3.757 21.085-.164.164-.164.327-.327.49 38.059 60.966 107.317 96.434 145.376 157.4.163 0 .326-.163.49-.163 6.207-2.615 13.23-1.308 17.804 3.432.164.164.164.327.327.327l45.083-36.776c0-.163-.164-.327-.164-.653-1.633-7.356-.326-15.201 3.757-21.085.164-.164.164-.327.327-.49-37.896-60.966-107.317-96.434-145.376-157.4zM1067.61 300.57c-14.538 11.768-28.912 23.536-43.45 35.468-4.9-4.74-11.924-5.884-18.294-3.433-37.896-60.148-106.337-95.453-144.233-155.602 4.084-6.047 5.39-14.056 3.757-21.575 14.538-11.768 28.912-23.536 43.45-35.468 4.9 4.74 11.924 5.884 18.294 3.433 38.06 60.148 106.337 95.453 144.233 155.602-4.084 6.047-5.39 14.22-3.757 21.575z" fill="#EC2227"/><path d="M992.6 207.057c-14.268-12.67-37.556-13.483-52.152-1.787-14.76 11.859-15.416 32.002-.984 44.673 14.268 12.67 37.556 13.483 52.151 1.787 14.76-11.859 15.252-32.002.984-44.673zm24.542 71.543c-4.97 3.924-5.468 11.115-1.49 16.018 3.976 4.904 10.935 5.884 15.906 1.962 4.97-3.923 5.965-11.441 1.988-16.345-4.142-5.066-11.598-5.557-16.404-1.634zM900.437 160.426c-4.965 3.932-5.958 11.467-1.986 16.382 3.971 4.914 11.418 5.57 16.383 1.638 4.965-3.932 5.461-11.14 1.655-16.054-4.137-4.915-11.088-5.898-16.052-1.966zM1058-5h-12.52c-11.545 8.068-23.09 15.972-34.472 24.04-1.951-5.269-7.642-6.75-12.195-3.622-3.415-7.245-7.48-13.832-12.033-20.253H978C987.106 7.349 994.748 20.687 999.463 36c19.35-13.831 39.025-27.333 58.537-41z" fill="#EC2227"/><path d="M1010.448 18c11.571-8 23.143-15.837 34.552-23.837h-5.867c-9.29 6.368-18.418 12.735-27.708 18.939 0-.163-.163-.163-.163-.326-2.77-3.43-7.17-4.572-11.408-3.266-.163 0-.163 0-.326.163-2.771-5.387-6.03-10.612-9.453-15.673H986c4.564 6.367 8.638 13.061 12.06 20.082 4.727-2.94 10.432-1.306 12.388 3.918z" fill="#FFF"/><path d="M1011.408 13c8.585-6 17.007-12 25.592-18h-46c3.077 4.667 6.155 9.667 8.746 14.833 4.212-1.333 8.747-.166 11.662 3.167z" fill="#FFF"/><path d="M999.637 10.427c4.083-1.299 8.656-.162 11.433 3.248 0 .163.163.163.163.325 9.31-6.333 18.457-12.667 27.767-18.838h-1.633c-8.657 5.847-17.15 11.693-25.807 17.539-2.94-3.248-7.35-4.385-11.597-3.248C997.35 4.419 994.41-.291 991.143-5H990c3.43 5.034 6.697 10.068 9.473 15.59l.164-.163zM652.184 221.496c-22.132-.329-44.101-2.96-65.094-12.496-3.418 28.939-6.673 57.713-10.09 86.652 24.248 11.016 49.634 12.825 75.184 12.332 41.01-.494 82.833-6.577 121.726 11.016 3.418-28.939 6.673-57.713 10.09-86.652-42.149-18.744-87.552-10.194-131.816-10.852zm116.356 75.471c-5.858-2.137-11.229 1.48-12.042 7.564-33.85-9.373-69.326-4.769-104.477-4.44-18.877.165-37.592-.822-55.98-5.755.65-6.083-3.581-12.332-9.44-14.469 1.953-16.114 3.743-32.392 5.696-48.505 5.859 2.137 11.229-1.48 12.043-7.564 15.622 4.275 31.57 5.59 47.681 5.755 37.755.329 76.16-5.755 112.613 4.44-.65 6.083 3.58 12.331 9.44 14.469-1.791 16.113-3.744 32.392-5.534 48.505z" fill="#EC2227"/><path d="M764.698 234.102c-36.556-9.94-75.07-3.91-112.93-4.4-16.157-.162-32.15-1.466-47.98-5.702-.653 6.029-6.201 9.776-12.076 7.495-1.959 15.967-3.754 32.098-5.712 48.065 5.875 2.118 10.118 8.31 9.465 14.338 18.278 5.051 37.209 6.029 56.14 5.703 35.086-.326 70.662-4.888 104.607 4.399.653-6.029 6.201-9.776 12.076-7.495 1.959-15.967 3.754-32.098 5.712-48.065-5.712-2.118-9.955-8.31-9.302-14.338zm.653 58.004h-.327c-4.896-.163-9.139 2.77-11.097 7.169 0 .163-.163.163-.163.326-33.129-8.147-67.889-3.91-101.997-3.585-17.788.163-35.25-.651-52.548-4.888v-.488c-.816-5.214-4.08-9.94-8.65-12.872-.163 0-.163-.163-.326-.163 1.632-13.85 3.264-27.862 4.896-41.71h.326c4.896.162 9.14-2.77 11.097-7.17 0-.163.164-.163.164-.326 14.85 3.585 29.864 4.888 45.041 4.888 36.556.326 73.764-5.214 109.34 3.585v.326c.817 5.213 4.08 9.938 8.65 12.871.163 0 .163.163.326.163-1.468 14.012-3.1 28.025-4.732 41.874z" fill="#FFF"/><path d="M761.018 237.195c-35.273-8.523-72.18-3.114-108.433-3.442-15.024-.164-29.884-1.311-44.581-4.753-2.123 4.425-6.37 7.375-11.268 7.375-1.633 13.44-3.103 26.88-4.736 40.319 4.572 3.114 8.002 7.867 8.818 13.111 16.984 4.098 34.294 4.917 51.767 4.753 33.967-.328 68.424-4.589 101.411 3.442 2.123-4.425 6.37-7.375 11.268-7.375 1.633-13.44 3.103-26.88 4.736-40.319-4.736-2.95-8.002-7.867-8.982-13.111zM629.07 263.418a8.281 8.281 0 0 1-9.145 7.375c-4.573-.655-7.675-4.917-7.186-9.506.49-4.589 4.573-7.539 9.145-6.883 4.41.655 7.676 4.589 7.186 9.014zm76.752-.492c-1.633 13.604-14.044 24.749-27.925 25.404-13.88.656-23.679-10.325-22.046-23.929 1.633-13.603 14.044-24.748 27.925-25.403 13.718-.492 23.679 10.325 22.046 23.928zm43.275 3.114c-.49 4.59-4.572 7.54-9.145 6.884-4.572-.656-7.838-4.59-7.185-9.178a8.281 8.281 0 0 1 9.145-7.375c4.572.655 7.838 5.08 7.185 9.67z" fill="#FFF"/><path d="M770.674 249.609c-4.57-2.925-7.834-7.636-8.65-12.836v-.324c-35.575-8.774-72.783-3.25-109.338-3.575-15.176-.162-30.353-1.3-45.204-4.874 0 .162-.163.162-.163.325-1.958 4.387-6.201 7.311-11.097 7.149h-.326c-1.632 13.81-3.264 27.782-4.896 41.592.163 0 .163.163.326.163 4.57 2.924 7.834 7.636 8.65 12.835v.487c17.135 4.225 34.76 5.2 52.547 4.875 34.107-.325 68.704-4.712 101.995 3.574 0-.162.163-.162.163-.325 1.958-4.387 6.201-7.311 11.097-7.149h.326c1.632-13.81 3.264-27.782 4.896-41.592-.163-.163-.163-.325-.326-.325zm-5.549 40.618c-4.896 0-9.139 2.924-11.26 7.31-32.965-7.96-67.398-3.736-101.342-3.411-17.461.162-34.76-.65-51.568-4.712-.98-5.199-4.243-9.91-8.813-12.998 1.632-13.322 3.101-26.645 4.733-39.967 4.896 0 9.139-2.925 11.26-7.312 14.524 3.575 29.538 4.712 44.388 4.712 36.229.325 73.11-5.2 108.36 3.412.978 5.199 4.242 9.91 8.811 12.998-1.468 13.322-2.937 26.645-4.569 39.968z" fill="#EC2227"/><path d="M682.92 239.016c-13.791.65-26.123 11.713-27.746 25.216-1.622 13.503 8.275 24.24 21.905 23.752 13.792-.65 26.124-11.713 27.747-25.216 1.622-13.503-8.275-24.24-21.905-23.752zm56.125 33.9c4.453.633 8.428-2.376 8.906-6.652.477-4.435-2.545-8.553-6.998-9.186-4.453-.634-8.429 2.692-8.906 7.127-.477 4.276 2.704 8.077 6.998 8.71zM772 476.917c19.748 7.36 39.659 14.722 59.407 22.083 31.172-40.404 19.42-96.512 50.593-136.917-19.748-7.36-39.659-14.722-59.407-22.083-31.172 40.404-19.42 96.676-50.593 136.917zm60.06-127.102c11.097 4.09 22.195 8.179 33.293 12.432-2.611 3.762-.816 8.343 3.264 9.815-19.258 34.842-15.83 78.191-34.926 113.034-4.243-1.636-9.302.49-11.914 4.253-11.097-4.09-22.195-8.18-33.293-12.432 2.611-3.763.816-8.343-3.264-9.815 19.258-34.843 15.83-78.192 34.925-113.034 4.244 1.472 9.466-.49 11.914-4.253z" fill="#EC2227"/><path d="M793.26 475.657c9.29 3.447 18.418 6.895 27.71 10.343 2.933-2.791 7.008-4.269 10.92-4.104 17.114-33.657 14.995-74.538 32.11-108.195-2.77-2.298-4.238-5.91-3.26-9.358-9.29-3.447-18.418-6.895-27.71-10.343-2.933 2.791-7.008 4.269-10.92 4.104-17.114 33.657-14.995 74.538-32.11 108.195 2.77 2.298 4.075 5.91 3.26 9.358zm28.361-10.672c-1.14 3.12-4.89 4.597-7.987 3.448-3.097-1.15-4.564-4.597-3.423-7.717 1.141-3.119 4.564-4.76 7.661-3.612 3.097 1.314 4.89 4.762 3.75 7.881zm10.758-89.806c1.14-3.12 4.89-4.597 7.987-3.448 3.097 1.15 4.564 4.597 3.423 7.717-1.141 3.12-4.564 4.761-7.661 3.612-3.26-1.314-4.89-4.761-3.75-7.88zm-22.33 38.582c1.955-10.015 11.41-15.104 20.7-11.657 9.29 3.448 15.158 14.284 13.203 24.299-1.956 10.015-11.41 15.104-20.7 11.657-9.455-3.448-15.16-14.284-13.204-24.299z" fill="#FFF"/><path d="M785 467.679c4.223 1.641 5.847 6.072 3.249 9.847 11.045 4.104 22.09 8.207 33.135 12.474 2.598-3.775 7.634-5.744 11.857-4.267 19.166-34.96 15.755-78.453 34.759-113.412-4.223-1.477-5.847-6.072-3.249-9.847-11.045-4.104-22.09-8.207-33.135-12.474-2.598 3.775-7.634 5.744-11.857 4.267-19.004 34.96-15.593 78.453-34.759 113.412zm36.546-110.293c3.736.328 7.796-1.313 10.558-3.94l.162-.163 28.75 10.832v.328c-.975 3.447.325 6.893 3.248 9.191l.163.164c-17.542 33.81-15.106 75.17-32.486 109.145h-.325c-3.735-.329-7.796 1.313-10.557 3.939l-.163.164-28.75-10.833v-.328c.975-3.447-.324-7.057-3.248-9.191l-.162-.164c17.542-33.81 15.105-75.17 32.485-109.144h.325z" fill="#FFF"/><path d="M789.163 466.612c2.773 2.138 4.24 5.755 3.262 9.208v.328L821.292 487l.163-.164c2.936-2.796 6.85-4.275 10.6-3.946h.327c17.614-33.87 15.167-75.303 32.618-109.338l-.163-.164c-2.773-2.138-4.24-5.755-3.262-9.208v-.328L832.708 353l-.163.164c-2.936 2.796-6.85 4.275-10.6 3.946h-.327c-17.614 33.87-15.167 75.303-32.618 109.338 0 0 .163 0 .163.164zm32.944-108.844c3.914.165 7.829-1.315 10.927-4.11 9.296 3.452 18.43 6.905 27.726 10.358-.816 3.453.489 7.07 3.261 9.372-17.124 33.705-15.004 74.645-32.128 108.35-3.914-.164-7.829 1.316-10.927 4.111-9.296-3.453-18.43-6.905-27.726-10.358.816-3.453-.489-7.07-3.261-9.372 17.124-33.706 15.004-74.645 32.128-108.35z" fill="#EC2227"/><path d="M822.715 436.927c9.38 3.438 18.924-1.637 20.898-11.624 1.975-9.987-3.784-20.792-13.328-24.23-9.38-3.438-18.924 1.637-20.898 11.624-1.975 9.987 3.784 20.792 13.328 24.23zM835 382.635c3.07 1.142 6.466-.489 7.598-3.587 1.131-3.097-.162-6.521-3.395-7.663-3.072-1.14-6.629.326-7.922 3.424-.97 3.261.646 6.685 3.718 7.826zm-18.04 73.73c-3.056-1.142-6.434.489-7.56 3.587-1.125 3.097.161 6.521 3.378 7.663 3.056 1.14 6.594-.326 7.88-3.424 1.127-3.098-.643-6.522-3.698-7.826zM689 452.082c-11.554-10.8-24.247-19.147-37.591-26.02-58.096-29.785-129.373-31.258-179.495-78.062-14.971 31.585-29.943 63.333-44.914 94.918 61.513 57.441 155.573 46.64 217.086 104.082 2.44-5.237 4.882-10.31 7.323-15.547v-.164c12.53-26.347 25.06-52.859 37.591-79.207zm-59.235 71.516c-54.353-36.985-125.792-37.64-180.145-74.625 3.255-6.71.65-15.547-5.208-20.293 8.463-17.674 16.762-35.512 25.224-53.187 5.858 4.746 13.507 2.782 16.762-3.927 49.47 33.548 113.099 37.312 165.01 65.46 5.208 2.782 10.09 5.728 14.972 9.165-3.255 6.71-.65 15.547 5.208 20.293-6.672 14.237-13.507 28.475-20.18 42.713v.163c-1.627 3.437-3.254 6.874-4.881 10.474-5.859-5.073-13.507-2.946-16.762 3.764z" fill="#EC2227"/><path d="M673 466.898c-5.88-4.745-8.33-13.58-5.226-20.289-4.9-3.272-9.963-6.38-15.026-9.162-52.264-28.142-116.123-31.906-165.61-65.447-3.104 6.708-10.78 8.835-16.823 3.927-8.493 17.67-16.822 35.505-25.315 53.175 5.88 4.745 8.33 13.58 5.226 20.289 54.55 36.977 126.25 37.632 180.8 74.609 3.103-6.708 10.78-8.835 16.822-3.927 1.633-3.436 3.267-7.035 5.063-10.471v-.164c6.696-14.07 13.393-28.306 20.089-42.54zm-27.112 46.794c-.163 0-.326-.163-.49-.163-5.553-2.127-11.432-.491-15.515 3.926l-.327.328c-52.917-34.033-121.186-36.16-174.103-70.192 0-.164 0-.327.163-.49 1.143-6.218-.817-13.09-4.9-18.162-.163-.164-.163-.328-.326-.328 7.35-15.38 14.699-30.76 21.885-46.14.163 0 .327.164.49.164 5.553 2.127 11.433.49 15.516-3.927l.326-.327c49.65 31.905 112.857 35.832 164.304 64.301 3.267 1.8 6.696 3.764 9.8 5.89 0 .164 0 .328-.164.492-1.143 6.217.817 13.089 4.9 18.161.163.164.163.327.327.49-5.063 10.472-9.963 20.944-15.026 31.579v.163l-6.86 14.235z" fill="#FFF"/><path d="M667 467.718c-.163-.164-.163-.328-.326-.493-4.076-5.094-6.032-11.995-4.891-18.24 0-.163 0-.328.163-.492-3.26-2.136-6.522-3.944-9.782-5.916C600.808 413.822 537.876 410.042 488.15 378l-.326.329c-3.913 4.436-9.945 6.08-15.488 3.943-.163 0-.326-.164-.49-.164C464.51 397.554 457.175 413 450 428.446c.163.164.163.329.326.329 4.076 5.258 6.032 11.995 4.891 18.24 0 .163 0 .328-.163.492C507.878 481.685 576.026 483.822 628.85 518l.326-.329c3.913-4.436 9.945-6.08 15.488-3.943.163 0 .326.164.49.164 2.282-4.93 4.564-9.695 6.847-14.624v-.165c5.054-10.516 9.945-20.868 14.999-31.385zm-22.499 44.53c-5.543-1.971-11.738-.163-15.814 4.109-52.498-33.521-119.668-35.986-172.166-69.507.979-6.409-.978-13.31-5.054-18.568 7.01-14.789 14.021-29.742 21.032-44.53 5.706 1.971 11.738.163 15.814-4.109 49.726 31.714 112.658 35.657 163.688 64.413 2.934 1.644 5.706 3.287 8.478 5.094-.979 6.409.978 13.31 5.054 18.568-4.565 9.53-8.967 19.061-13.532 28.592v.164c-2.446 5.258-5.054 10.517-7.5 15.775zM1229 294.708c24.136 10.917 49.406 12.71 74.838 12.22v-7.82c-18.79.162-37.581-.816-55.724-5.704.648-6.029-3.563-12.22-9.395-14.339 1.944-15.968 3.726-32.1 5.67-48.068 5.831 2.118 11.177-1.466 11.987-7.495 15.55 4.236 31.425 5.54 47.624 5.703v-7.821c-22.03-.326-43.898-2.933-64.795-12.384A7719.467 7719.467 0 0 0 1229 294.708z" fill="#EC2227"/><path d="M1244.732 231.676c-1.965 16.005-3.767 32.174-5.732 48.18 5.896 2.122 10.154 8.328 9.499 14.371 18.342 5.063 37.34 6.043 56.337 5.716v-3.593c-17.85.164-35.538-.653-52.734-4.9v-.49c-.82-5.225-4.095-9.962-8.68-12.901-.164 0-.164-.164-.328-.164 1.638-13.882 3.276-27.927 4.913-41.81h.328c4.913.164 9.171-2.776 11.136-7.185 0-.164.164-.164.164-.327 14.903 3.756 29.97 4.9 45.365 4.9v-3.757c-16.213-.163-32.263-1.47-48.149-5.716-.819 6.043-6.223 9.8-12.119 7.676z" fill="#FFF"/><path d="M1248.69 236.454c-1.617 13.288-3.073 26.576-4.69 39.864 4.528 3.079 7.925 7.778 8.733 12.964 16.82 4.05 33.962 4.86 51.267 4.699v-60.282c-14.879-.162-29.596-1.296-44.15-4.699-1.942 4.537-6.308 7.454-11.16 7.454zm15.85 24.47c.484-4.538 4.527-7.455 9.056-6.807 4.528.648 7.762 4.538 7.116 9.075a8.198 8.198 0 0 1-9.057 7.292c-4.528-.648-7.601-5.023-7.116-9.56z" fill="#FFF"/><path d="M1258.18 228.121c-1.941 4.369-6.148 7.281-11.002 7.12h-.324c-1.618 13.752-3.236 27.666-4.854 41.419.162 0 .162.162.324.162 4.53 2.912 7.766 7.604 8.575 12.781v.486c16.99 4.206 34.464 5.177 52.101 4.854v-.971c-17.313.162-34.464-.647-51.292-4.692-.97-5.178-4.207-9.87-8.737-12.944 1.618-13.267 3.074-26.534 4.692-39.801 4.854 0 9.061-2.913 11.165-7.281 14.562 3.56 29.286 4.692 44.172 4.692v-.97c-15.048-.163-30.095-1.295-44.82-4.855.162-.161.162-.161 0 0z" fill="#EC2227"/><path d="M1271.047 270.918c4.453.667 8.428-2.832 8.906-7.498.477-4.666-2.704-8.665-6.998-9.331-4.453-.667-8.428 2.5-8.906 6.998-.477 4.832 2.545 9.332 6.998 9.831zM1079 443.003c61.675 57.395 155.983 46.603 217.658 103.997 2.447-5.233 4.895-10.302 7.342-15.534v-22.402c-1.632 3.434-3.263 7.031-5.058 10.465-5.874-4.742-13.542-2.78-16.806 3.925-54.496-36.955-126.124-37.61-180.62-74.564 3.264-6.704.653-15.534-5.22-20.276 8.484-17.66 16.805-35.483 25.29-53.143 5.873 4.742 13.542 2.78 16.805-3.925 49.601 33.521 113.397 37.282 165.446 65.407v-10.955c-58.249-29.76-129.714-31.232-179.968-77.998-14.847 31.886-29.858 63.445-44.869 95.003z" fill="#EC2227"/><path d="M1124.976 384.117c-6.992 14.82-13.984 29.804-20.976 44.623 4.065 5.434 6.016 12.185 5.04 18.607 52.358 33.592 119.35 36.062 171.708 69.653 4.065-4.446 10.081-6.093 15.772-4.117 2.44-5.269 5.041-10.703 7.48-15.972v-52.363c-51.057-28.816-113.659-32.768-163.252-64.548-4.228 4.281-10.244 6.093-15.772 4.117zm145.04 84.966c2.44-4.94 8.293-7.245 13.334-4.775 4.878 2.47 6.829 8.727 4.552 13.831-2.439 5.105-8.13 6.916-13.17 4.446-4.878-2.634-7.155-8.397-4.716-13.502zm-88.13-29.475c6.992-14.984 25.691-23.053 41.626-18.277 15.935 4.775 23.09 21.241 15.935 36.225-6.992 14.985-25.69 23.053-41.626 18.278-15.935-4.775-23.09-21.241-15.935-36.226zm-35.122-25.029c4.878 2.47 7.155 8.398 4.716 13.338-2.44 4.94-8.293 7.245-13.334 4.775-4.878-2.47-6.829-8.727-4.553-13.831 2.44-4.94 8.13-6.752 13.171-4.282z" fill="#FFF"/><path d="M1122.306 375.767c-8.49 17.69-16.816 35.543-25.306 53.233 5.878 4.75 8.327 13.595 5.224 20.31 54.531 37.018 126.205 37.673 180.735 74.69 3.102-6.716 10.776-8.845 16.817-3.931 1.632-3.44 3.265-7.043 5.06-10.483v-10.483c-2.285 4.914-4.57 9.664-6.856 14.578-.164 0-.327-.164-.49-.164-5.551-2.13-11.429-.491-15.51 3.931l-.327.328c-52.898-34.07-121.143-36.198-174.04-70.267 0-.164 0-.328.163-.492 1.142-6.224-.817-13.103-4.898-18.18-.164-.165-.164-.328-.327-.328 7.347-15.397 14.694-30.793 21.878-46.19.163 0 .326.164.49.164 5.55 2.13 11.428.491 15.51-3.931l.326-.328c49.796 32.104 112.816 35.87 164.245 64.37v-5.077c-52.245-28.172-116.082-31.94-165.551-65.517-3.592 6.388-11.265 8.517-17.143 3.767z" fill="#FFF"/><path d="M1139.824 378.329c-3.913 4.436-9.945 6.08-15.488 3.943-.163 0-.326-.164-.49-.164-7.336 15.446-14.672 30.892-21.846 46.338.163.164.163.329.326.329 4.076 5.258 6.032 11.995 4.891 18.24 0 .163 0 .328-.163.492 52.823 34.178 120.972 36.315 173.795 70.493l.326-.329c3.913-4.436 9.945-6.08 15.488-3.943.163 0 .327.164.49.164 2.282-4.93 4.565-9.695 6.847-14.624v-2.958c-2.446 5.258-5.054 10.68-7.5 15.939-5.543-1.972-11.738-.164-15.814 4.108-52.497-33.521-119.667-35.986-172.165-69.507.979-6.409-.978-13.31-5.054-18.568 7.01-14.789 14.021-29.742 21.032-44.53 5.706 1.971 11.738.163 15.814-4.109C1190.04 411.357 1252.97 415.3 1304 444.056v-1.479c-51.356-28.755-114.287-32.535-164.013-64.577 0 0 0 .164-.163.329z" fill="#EC2227"/><path d="M1197.678 474.634c15.906 4.754 34.571-3.28 41.55-18.199 7.142-15.083 0-31.314-15.906-36.069-15.906-4.754-34.571 3.28-41.55 18.199-7.142 14.92 0 31.314 15.906 36.069zm77.055 6.292c4.905 2.425 10.791.647 13.244-4.365 2.453-4.85.327-11.155-4.578-13.58-4.905-2.425-10.955-.162-13.407 4.688-2.453 5.174-.164 10.832 4.741 13.257zm-141.71-62.526c-2.453 4.863-.327 11.185 4.578 13.617 4.905 2.431 10.955.162 13.407-4.702 2.453-5.025.164-10.7-4.741-13.13-5.069-2.595-10.791-.811-13.244 4.214zM961.976 498c-21.38 14.724-42.596 29.447-63.976 44.008 13.71 44.498 52.878 71.491 79.644 106.992h8.813c-23.338-32.883-58.264-57.913-76.217-94.723 4.57-3.108 6.202-9.652 4.08-14.887 11.914-8.18 23.992-16.523 35.906-24.703 1.958 5.235 7.67 6.707 12.24 3.599 21.216 43.844 66.914 71.001 88.294 115.009-4.57 3.108-6.202 9.652-4.08 14.887-.327.327-.817.49-1.306.818h12.567c1.632-1.145 3.427-2.29 5.059-3.436-18.279-59.876-82.745-87.851-101.024-147.564z" fill="#EC2227"/><path d="M1046 632.381c-21.394-41.135-63.693-67.79-84.925-109.09-4.246 1.316-8.819.164-11.595-3.291l-29.887 20.732c.653 4.936-.653 10.037-3.593 13.822 18.781 36.034 53.568 61.044 76.269 94.446h46.218a60.164 60.164 0 0 1 4.083-2.797c-.816-4.936.49-10.037 3.43-13.822zm-95.704-74.208c-3.43 2.304-8.002 1.481-10.288-1.81-2.287-3.455-1.307-8.227 2.123-10.53 3.43-2.304 7.839-1.316 10.125 2.139 2.123 3.29 1.47 7.898-1.96 10.201zm45.892 51.995c-10.125 6.911-24.987 5.101-33.48-3.949-8.492-9.05-7.022-22.213 3.104-29.288 10.125-6.91 24.987-5.1 33.48 3.95 8.492 9.049 7.022 22.212-3.104 29.287zm23.518 31.263c-3.43 2.304-7.84 1.316-10.126-2.139-2.286-3.455-1.47-8.062 1.797-10.366 3.43-2.304 8.002-1.48 10.289 1.81 2.45 3.62 1.47 8.392-1.96 10.695z" fill="#FFF"/><path d="M1050 633.214c-21.138-44.068-66.667-71.364-87.967-115.596-4.553 3.124-10.082 1.644-12.196-3.618-11.87 8.222-23.902 16.608-35.772 24.83 1.951 5.261.325 11.839-4.065 14.963 17.724 36.997 52.52 62.156 75.935 95.207H990c-22.764-33.216-57.398-58.21-75.935-94.55 0-.164.163-.164.163-.328 2.926-3.618 4.227-8.715 3.577-13.484v-.329c10.406-7.235 20.65-14.305 31.057-21.54 0 .164.162.164.162.328 2.765 3.454 7.155 4.605 11.383 3.29.162 0 .162 0 .325-.165 21.3 41.766 64.065 68.568 85.366 110.17 0 .165-.163.165-.163.33-2.927 3.617-4.228 8.714-3.577 13.483v.328c-1.138.823-2.277 1.645-3.415 2.303h5.854c.488-.33.813-.494 1.3-.823-2.276-5.097-.65-11.51 3.903-14.799z" fill="#FFF"/><path d="M1042.261 646.21c-.65-4.76.65-10.013 3.576-13.46 0-.164.163-.164.163-.328-21.296-41.692-64.05-68.447-85.345-109.975-.162 0-.162 0-.325.164-4.064 1.313-8.616.164-11.38-3.283 0-.164-.162-.164-.162-.328-10.404 7.222-20.645 14.28-31.05 21.503v.328c.651 4.76-.65 10.012-3.575 13.46 0 .164-.163.164-.163.328 18.532 36.11 53.158 61.06 75.916 94.381h1.138c-22.596-33.32-57.221-58.27-75.916-94.217 2.926-3.775 4.227-8.864 3.576-13.788l29.75-20.682c2.925 3.283 7.314 4.432 11.54 3.283 21.296 41.035 63.4 67.626 84.533 108.826-2.926 3.775-4.227 8.863-3.576 13.788a59.88 59.88 0 0 1-4.064 2.79h1.625c1.138-.82 2.276-1.641 3.414-2.298.325-.164.325-.328.325-.492z" fill="#EC2227"/><path d="M965.701 578.245c-10.2 6.945-11.68 19.867-3.125 28.751 8.554 8.884 23.688 10.66 33.723 3.877 10.2-6.946 11.68-19.868 3.125-28.752-8.554-9.045-23.524-10.822-33.723-3.876zm-24.264-30.991c-3.507 2.3-4.51 7.065-2.171 10.515 2.338 3.451 7.182 4.273 10.523 1.808 3.507-2.3 4.175-6.901 1.837-10.352-2.338-3.286-6.848-4.272-10.189-1.971zm69.739 82.146c-3.469 2.278-4.13 6.834-1.817 10.251 2.313 3.417 6.773 4.394 10.241 2.116 3.47-2.278 4.46-6.997 2.148-10.415-2.478-3.58-7.268-4.393-10.572-1.952zM1293.116-5c-28.59 29.143-58.317 56.813-98.116 70.893 23.88 32.09 47.596 64.017 71.475 96.107 13.483-4.748 25.829-11.133 37.525-18.665v-13.261c-6.173 4.42-12.67 8.35-19.493 12.115-5.036-6.876-15.108-8.841-23.067-5.403-13.32-18.01-26.641-35.856-40.124-53.865 7.96-3.439 9.909-12.28 4.873-19.156 29.89-16.21 54.094-39.95 77.811-64.344V-5h-10.884z" fill="#EC2227"/><path d="M1235.208 65.812c2.105 6.588.648 13.67-4.208 18.282 11.169 14.988 22.175 30.141 33.344 45.13 7.445-1.318 15.377.329 21.204 4.776 6.312-3.788 12.463-7.906 18.452-12.188V8c-21.204 21.576-42.894 42.494-68.792 57.812zm50.987 30.47c-5.018 3.789-12.301 2.47-16.024-2.635-3.723-5.106-2.59-12.023 2.59-15.812 5.017-3.788 11.977-2.8 15.7 2.306 3.723 5.106 2.752 12.518-2.266 16.141z" fill="#FFF"/><path d="M1225.892 63.268c5.055 6.739 3.098 15.78-4.892 19.23 13.371 18.081 26.743 35.997 40.277 54.078 7.99-3.452 18.1-1.315 23.155 5.424 6.849-3.616 13.208-7.725 19.568-12.163v-6.246c-6.033 4.273-12.23 8.383-18.59 12.163-.162-.164-.326-.164-.489-.329-5.707-4.438-13.534-6.081-20.872-4.766-.163 0-.326 0-.652.164-11.578-15.615-23.155-31.23-34.896-46.845.163-.164.326-.164.326-.329 5.055-4.438 6.523-11.505 4.24-17.751 0-.165-.163-.329-.163-.493 26.905-15.451 49.245-36.819 71.096-59.173V-1c-23.807 24.326-48.104 47.995-78.108 64.268z" fill="#FFF"/><path d="M1233.374 65.48c0 .165.162.33.162.495 2.267 6.426.81 13.346-4.212 17.794-.162.165-.324.165-.324.33 11.501 15.653 23.002 31.305 34.665 46.958.162 0 .324 0 .648-.165 7.29-1.318 15.065.33 20.735 4.778.161.165.323.165.485.33 6.48-3.79 12.635-7.744 18.467-12.193v-1.812c-5.994 4.449-12.149 8.403-18.467 12.193-5.831-4.45-13.768-5.932-21.22-4.779-11.177-14.993-22.192-30.152-33.37-45.145 4.86-4.779 6.318-11.863 4.213-18.29 25.917-15.158 47.624-36.083 68.844-57.832V6c-21.544 22.408-43.898 43.992-70.626 59.48z" fill="#EC2227"/><path d="M1272.797 77.348c-5.086 3.793-6.398 10.719-2.625 15.83 3.774 5.112 11.157 6.432 16.244 2.639 5.086-3.793 6.07-11.048 2.297-16.16-3.61-5.277-10.665-6.102-15.916-2.309zM762.426 555c-45.637 16.128-78.071 49.688-110.669 83.085-3.586 3.584-7.171 7.33-10.757 10.915h15.157c27.22-27.858 54.113-56.042 88.34-74.45 5.053 6.842 15.158 8.797 23.145 5.375 13.365 17.92 26.73 35.678 40.258 53.598-6.683 2.77-8.965 9.45-6.846 15.314H833c-23.47-31.116-46.94-62.395-70.574-93.837z" fill="#EC2227"/><path d="M808 633.617c-13.388-17.812-26.776-35.462-40.327-53.273-8 3.4-18.122 1.295-23.183-5.344-34.286 18.298-61.225 46.31-88.49 74h7.02c24.817-25.26 49.633-50.359 80.49-67.685.163.162.327.162.49.324 5.714 4.372 13.551 5.991 20.898 4.696.163 0 .326 0 .653-.162 11.592 15.383 23.184 30.766 34.939 46.149-.163.162-.327.162-.327.324-4.734 4.21-6.204 10.363-4.571 16.354h5.55c-2.122-6.153.327-12.63 6.858-15.383z" fill="#FFF"/><path d="M799 632.015c-11.233-14.72-22.302-29.603-33.535-44.324-7.488 1.294-15.465-.323-21.325-4.691-29.791 16.985-54.047 41.412-78.14 66h17.907a29.404 29.404 0 0 1 11.884 0h98.814c-1.791-6.147-.163-12.618 4.395-16.985zm-41.837 6.147c-5.047 3.72-12.047 2.75-15.79-2.265-3.745-5.015-2.931-12.294 2.278-15.853 5.047-3.72 12.372-2.426 16.116 2.588 3.582 5.015 2.442 11.81-2.604 15.53z" fill="#FFF"/><path d="M799.675 632.57c.162-.163.325-.163.325-.326-11.552-15.455-23.105-30.91-34.82-46.364-.162 0-.325 0-.65.163-7.322 1.301-15.132-.325-20.827-4.718-.163-.162-.325-.162-.488-.325-30.59 17.407-55.483 42.622-80.215 68h1.952c24.081-24.727 48.325-49.13 78.1-66.373 5.858 4.392 13.83 5.856 21.315 4.717 11.227 14.804 22.291 29.77 33.518 44.575-4.719 4.392-6.183 10.9-4.556 17.081h1.627c-1.464-6.02 0-12.364 4.719-16.43z" fill="#EC2227"/><path d="M684 649.75h12c-3.945-1-8.055-1-12 0zm59.584-29.555c-5.086 3.812-6.07 11.106-2.297 16.244 3.774 5.139 10.83 5.968 15.916 2.321 5.086-3.812 6.398-10.775 2.625-15.913-3.774-5.139-11.157-6.465-16.244-2.652zM1304 649v-11c-3.667 3.72-7.333 7.28-11 11h11z" fill="#EC2227"/></g></svg>